<mxfile modified="2020-06-05T19:11:49.480Z" host="app.diagrams.net" agent="5.0 (Windows NT 10.0; Win64; x64) AppleWebKit/537.36 (KHTML, like Gecko) Chrome/83.0.4103.61 Safari/537.36" etag="MI7iLRRc6ZfnacvEmYtv" version="13.1.14" type="github">
  <diagram id="7881a58d-f445-9cbd-abc9-f13a61042135" name="Page-1">
    <mxGraphModel dx="6394" dy="4096" grid="1" gridSize="10" guides="1" tooltips="1" connect="1" arrows="1" fold="1" page="1" pageScale="1" pageWidth="827" pageHeight="1169" background="#ffffff" math="0" shadow="0">
      <root>
        <mxCell id="0" />
        <mxCell id="1" parent="0" />
        <mxCell id="1045" value="" style="rounded=1;arcSize=10;dashed=1;strokeColor=#000000;fillColor=none;gradientColor=none;dashPattern=8 3 1 3;strokeWidth=2;align=center;glass=0;" parent="1" vertex="1">
          <mxGeometry x="610" y="-30" width="3320" height="1190" as="geometry" />
        </mxCell>
        <mxCell id="1162" value="" style="rounded=1;arcSize=10;dashed=1;strokeColor=#000000;fillColor=none;gradientColor=none;dashPattern=8 3 1 3;strokeWidth=2;align=center;" parent="1" vertex="1">
          <mxGeometry x="-80" y="-27.25" width="650" height="1190" as="geometry" />
        </mxCell>
        <mxCell id="3588effd44935446-1105" value="" style="rounded=1;arcSize=10;dashed=1;strokeColor=#000000;fillColor=none;gradientColor=none;dashPattern=8 3 1 3;strokeWidth=2;align=center;" parent="1" vertex="1">
          <mxGeometry x="1620" y="-470" width="972" height="330" as="geometry" />
        </mxCell>
        <mxCell id="1154" style="edgeStyle=orthogonalEdgeStyle;rounded=1;html=1;startArrow=none;startFill=0;endArrow=none;endFill=0;jettySize=auto;orthogonalLoop=1;exitX=0;exitY=0.75;entryX=0.402;entryY=0;entryDx=0;entryDy=0;entryPerimeter=0;" parent="1" source="1130" target="473" edge="1">
          <mxGeometry relative="1" as="geometry" />
        </mxCell>
        <mxCell id="1161" value="&amp;lt;&amp;lt;TCP/IP:80&amp;gt;&amp;gt;" style="text;html=1;resizable=0;points=[];align=center;verticalAlign=middle;labelBackgroundColor=#ffffff;" parent="1154" vertex="1" connectable="0">
          <mxGeometry x="0.3341" y="7" relative="1" as="geometry">
            <mxPoint x="-1" as="offset" />
          </mxGeometry>
        </mxCell>
        <mxCell id="1158" style="edgeStyle=orthogonalEdgeStyle;rounded=1;html=1;entryX=0.288;entryY=0.992;startArrow=none;startFill=0;endArrow=none;endFill=0;jettySize=auto;orthogonalLoop=1;entryDx=0;entryDy=0;entryPerimeter=0;" parent="1" source="1130" target="474" edge="1">
          <mxGeometry relative="1" as="geometry">
            <Array as="points">
              <mxPoint x="3180" y="741" />
              <mxPoint x="3180" y="755" />
            </Array>
          </mxGeometry>
        </mxCell>
        <mxCell id="1159" value="&amp;lt;&amp;lt;TCP/IP:80&amp;gt;&amp;gt;" style="text;html=1;resizable=0;points=[];align=center;verticalAlign=middle;labelBackgroundColor=#ffffff;" parent="1158" vertex="1" connectable="0">
          <mxGeometry x="-0.0824" y="-1" relative="1" as="geometry">
            <mxPoint as="offset" />
          </mxGeometry>
        </mxCell>
        <mxCell id="1130" value="&lt;b&gt;&amp;lt;&amp;lt;Device&amp;gt;&amp;gt;&lt;/b&gt;&lt;br&gt;:Cluster" style="verticalAlign=top;align=center;spacingTop=8;spacingLeft=2;spacingRight=12;shape=cube;size=10;direction=south;fontStyle=4;html=1;" parent="1" vertex="1">
          <mxGeometry x="2430" y="571" width="300" height="399" as="geometry" />
        </mxCell>
        <mxCell id="473" value="&amp;lt;&amp;lt;&lt;b style=&quot;text-align: center&quot;&gt;Device&amp;gt;&amp;gt; &lt;br&gt;&lt;/b&gt;:ClusterK8SCuentaUnica" style="verticalAlign=top;align=center;spacingTop=8;spacingLeft=2;spacingRight=12;shape=cube;size=10;direction=south;fontStyle=4;html=1;" parent="1" vertex="1">
          <mxGeometry x="970" y="25" width="1410" height="1035" as="geometry" />
        </mxCell>
        <mxCell id="1120" style="edgeStyle=orthogonalEdgeStyle;rounded=1;html=1;entryX=0.25;entryY=1;startArrow=none;startFill=0;endArrow=none;endFill=0;jettySize=auto;orthogonalLoop=1;exitX=1;exitY=0.5;" parent="1" source="3588effd44935446-1094" target="573" edge="1">
          <mxGeometry relative="1" as="geometry">
            <Array as="points">
              <mxPoint x="2100" y="-89" />
              <mxPoint x="900" y="-89" />
              <mxPoint x="900" y="664" />
            </Array>
          </mxGeometry>
        </mxCell>
        <mxCell id="1123" value="&amp;lt;&amp;lt;TCP/IP:32760&amp;gt;&amp;gt;" style="text;html=1;resizable=0;points=[];align=center;verticalAlign=middle;labelBackgroundColor=#ffffff;" parent="1120" vertex="1" connectable="0">
          <mxGeometry x="-0.4512" y="-6" relative="1" as="geometry">
            <mxPoint x="-84.5" y="-5.5" as="offset" />
          </mxGeometry>
        </mxCell>
        <mxCell id="3588effd44935446-1107" value="" style="rounded=1;arcSize=12;dashed=1;strokeColor=#000000;fillColor=none;gradientColor=none;dashPattern=8 3 1 3;strokeWidth=2;align=center;" parent="1" vertex="1">
          <mxGeometry x="2620" y="-6.5" width="850" height="501" as="geometry" />
        </mxCell>
        <mxCell id="1059" value="" style="rounded=1;arcSize=10;dashed=1;strokeColor=#000000;fillColor=none;gradientColor=none;dashPattern=8 3 1 3;strokeWidth=2;align=center;" parent="1" vertex="1">
          <mxGeometry x="850" y="1230" width="2050" height="550" as="geometry" />
        </mxCell>
        <mxCell id="461" value="&lt;b&gt;&amp;lt;&amp;lt;Device&amp;gt;&amp;gt;&lt;/b&gt;&lt;br&gt;:ClusterKafkaCuentaUnica" style="verticalAlign=top;align=center;spacingTop=8;spacingLeft=2;spacingRight=12;shape=cube;size=10;direction=south;fontStyle=4;html=1;" parent="1" vertex="1">
          <mxGeometry x="2720" y="40" width="690" height="180" as="geometry" />
        </mxCell>
        <mxCell id="474" value="&lt;b&gt;&amp;lt;&amp;lt;Device&amp;gt;&amp;gt;&lt;/b&gt;&lt;br&gt;:Ubuntu Server&lt;br&gt;" style="verticalAlign=top;align=center;spacingTop=8;spacingLeft=2;spacingRight=12;shape=cube;size=10;direction=south;fontStyle=4;html=1;" parent="1" vertex="1">
          <mxGeometry x="2930" y="571" width="300" height="503.5" as="geometry" />
        </mxCell>
        <mxCell id="475" value="&lt;b&gt;&amp;lt;&amp;lt;Device&amp;gt;&amp;gt;&lt;br&gt;:&lt;/b&gt;Monitoreo&lt;br&gt;" style="verticalAlign=top;align=center;spacingTop=8;spacingLeft=2;spacingRight=12;shape=cube;size=10;direction=south;fontStyle=4;html=1;" parent="1" vertex="1">
          <mxGeometry x="2950" y="624.995808018276" width="260" height="90" as="geometry" />
        </mxCell>
        <mxCell id="476" value="&lt;b&gt;&amp;lt;&amp;lt;Device&amp;gt;&amp;gt;&lt;br&gt;:&lt;/b&gt;Monitoreo&lt;br&gt;" style="verticalAlign=top;align=center;spacingTop=8;spacingLeft=2;spacingRight=12;shape=cube;size=10;direction=south;fontStyle=4;html=1;" parent="1" vertex="1">
          <mxGeometry x="2952" y="787.495808018276" width="259" height="90" as="geometry" />
        </mxCell>
        <mxCell id="477" value="&lt;b&gt;&amp;lt;&amp;lt;Device&amp;gt;&amp;gt;&lt;br&gt;:&lt;/b&gt;Monitoreo&lt;br&gt;" style="verticalAlign=top;align=center;spacingTop=8;spacingLeft=2;spacingRight=12;shape=cube;size=10;direction=south;fontStyle=4;html=1;" parent="1" vertex="1">
          <mxGeometry x="2952" y="944.995808018276" width="260" height="99" as="geometry" />
        </mxCell>
        <mxCell id="478" value="&lt;font size=&quot;1&quot;&gt;&lt;span style=&quot;font-size: 12px&quot;&gt;&lt;b&gt;&amp;lt;&amp;lt;Artifact&amp;gt;&amp;gt;&lt;br&gt;&lt;/b&gt;Elastic Search&lt;/span&gt;&lt;/font&gt;&lt;br&gt;" style="html=1;fontStyle=0" parent="1" vertex="1">
          <mxGeometry x="2979" y="675.495808018276" width="200" height="30" as="geometry" />
        </mxCell>
        <mxCell id="479" value="" style="shape=component;jettyWidth=8;jettyHeight=4;" parent="478" vertex="1">
          <mxGeometry x="1" width="20" height="20" relative="1" as="geometry">
            <mxPoint x="-27" y="7" as="offset" />
          </mxGeometry>
        </mxCell>
        <mxCell id="480" value="&lt;font size=&quot;1&quot;&gt;&lt;span style=&quot;font-size: 12px&quot;&gt;&amp;lt;&amp;lt;&lt;b&gt;Artifact&lt;/b&gt;&amp;gt;&amp;gt;&lt;br&gt;Logstash&lt;/span&gt;&lt;/font&gt;&lt;br&gt;" style="html=1;fontStyle=0" parent="1" vertex="1">
          <mxGeometry x="2982" y="839.495808018276" width="199" height="30" as="geometry" />
        </mxCell>
        <mxCell id="481" value="" style="shape=component;jettyWidth=8;jettyHeight=4;" parent="480" vertex="1">
          <mxGeometry x="1" width="20" height="20" relative="1" as="geometry">
            <mxPoint x="-27" y="7" as="offset" />
          </mxGeometry>
        </mxCell>
        <mxCell id="482" value="&lt;font size=&quot;1&quot;&gt;&lt;span style=&quot;font-size: 12px&quot;&gt;&lt;b&gt;&amp;lt;&amp;lt;Artifact&amp;gt;&amp;gt;&lt;br&gt;&lt;/b&gt;Kibana&lt;/span&gt;&lt;/font&gt;&lt;br&gt;" style="html=1;fontStyle=0" parent="1" vertex="1">
          <mxGeometry x="2982" y="999.995808018276" width="200" height="30" as="geometry" />
        </mxCell>
        <mxCell id="483" value="" style="shape=component;jettyWidth=8;jettyHeight=4;" parent="482" vertex="1">
          <mxGeometry x="1" width="20" height="20" relative="1" as="geometry">
            <mxPoint x="-27" y="7" as="offset" />
          </mxGeometry>
        </mxCell>
        <mxCell id="496" value="&lt;div style=&quot;text-align: center&quot;&gt;&lt;b&gt;&amp;lt;&amp;lt;Device&amp;gt;&amp;gt;&lt;/b&gt;&lt;br&gt;:RHEL&lt;br&gt;&lt;/div&gt;" style="verticalAlign=top;align=center;spacingTop=8;spacingLeft=2;spacingRight=12;shape=cube;size=10;direction=south;fontStyle=4;html=1;" parent="1" vertex="1">
          <mxGeometry x="1030" y="125.5" width="275" height="382" as="geometry" />
        </mxCell>
        <mxCell id="497" value="&lt;b&gt;&amp;lt;&amp;lt;Kubernetes&amp;gt;&amp;gt;&lt;/b&gt;&lt;br&gt;:Master&lt;br&gt;" style="verticalAlign=top;align=center;spacingTop=8;spacingLeft=2;spacingRight=12;shape=cube;size=10;direction=south;fontStyle=4;html=1;" parent="1" vertex="1">
          <mxGeometry x="1050" y="182" width="228" height="98" as="geometry" />
        </mxCell>
        <mxCell id="498" value="&lt;b&gt;&amp;lt;&amp;lt;Artifact&amp;gt;&amp;gt;&lt;/b&gt;&lt;br&gt;Master Node" style="html=1;" parent="1" vertex="1">
          <mxGeometry x="1080" y="233.5" width="165.5" height="30" as="geometry" />
        </mxCell>
        <mxCell id="499" value="" style="shape=component;jettyWidth=8;jettyHeight=4;" parent="498" vertex="1">
          <mxGeometry x="1" width="21" height="20" relative="1" as="geometry">
            <mxPoint x="-28" y="7" as="offset" />
          </mxGeometry>
        </mxCell>
        <mxCell id="500" value="&lt;div style=&quot;text-align: center&quot;&gt;&lt;/div&gt;&lt;b&gt;&amp;lt;&amp;lt;Device&amp;gt;&amp;gt;&lt;/b&gt;&lt;br&gt;:RHEL" style="verticalAlign=top;align=center;spacingTop=8;spacingLeft=2;spacingRight=12;shape=cube;size=10;direction=south;fontStyle=4;html=1;" parent="1" vertex="1">
          <mxGeometry x="1380" y="80" width="934" height="930" as="geometry" />
        </mxCell>
        <mxCell id="505" value="&lt;div style=&quot;text-align: center&quot;&gt;&lt;div&gt;&lt;b&gt;&amp;lt;&amp;lt;Kubernetes&amp;gt;&amp;gt;&lt;/b&gt;&lt;/div&gt;&lt;div&gt;:Worker&lt;/div&gt;&lt;/div&gt;" style="verticalAlign=top;align=center;spacingTop=8;spacingLeft=2;spacingRight=12;shape=cube;size=10;direction=south;fontStyle=4;html=1;" parent="1" vertex="1">
          <mxGeometry x="1430" y="142" width="305" height="440" as="geometry" />
        </mxCell>
        <mxCell id="993" style="edgeStyle=orthogonalEdgeStyle;rounded=1;html=1;entryX=0.882;entryY=-0.003;endArrow=none;endFill=0;jettySize=auto;orthogonalLoop=1;entryPerimeter=0;exitX=0;exitY=0;exitDx=206.5;exitDy=0;exitPerimeter=0;" parent="1" source="509" target="474" edge="1">
          <mxGeometry relative="1" as="geometry">
            <Array as="points">
              <mxPoint x="3460" y="1529" />
              <mxPoint x="3460" y="1015" />
            </Array>
          </mxGeometry>
        </mxCell>
        <mxCell id="1031" value="&amp;lt;&amp;lt;TCP/IP:80&amp;gt;&amp;gt;" style="text;html=1;resizable=0;points=[];align=center;verticalAlign=middle;labelBackgroundColor=#ffffff;" parent="993" vertex="1" connectable="0">
          <mxGeometry x="0.3974" relative="1" as="geometry">
            <mxPoint as="offset" />
          </mxGeometry>
        </mxCell>
        <mxCell id="509" value="&lt;b&gt;&amp;lt;&amp;lt;Device&lt;span style=&quot;text-align: center&quot;&gt;&amp;gt;&amp;gt; &lt;br&gt;&lt;/span&gt;&lt;/b&gt;:DataStore&lt;br&gt;" style="verticalAlign=top;align=center;spacingTop=8;spacingLeft=2;spacingRight=12;shape=cube;size=10;direction=south;fontStyle=4;html=1;" parent="1" vertex="1">
          <mxGeometry x="1020" y="1302.92" width="1060" height="423" as="geometry" />
        </mxCell>
        <mxCell id="990" style="edgeStyle=orthogonalEdgeStyle;rounded=1;html=1;entryX=0;entryY=0;endArrow=none;endFill=0;jettySize=auto;orthogonalLoop=1;entryDx=503.5;entryDy=155;entryPerimeter=0;exitX=0;exitY=0;exitDx=108.99999999999999;exitDy=105;exitPerimeter=0;" parent="1" source="527" target="474" edge="1">
          <mxGeometry relative="1" as="geometry">
            <Array as="points">
              <mxPoint x="765" y="1030" />
              <mxPoint x="730" y="1030" />
              <mxPoint x="730" y="1880" />
              <mxPoint x="3075" y="1880" />
            </Array>
          </mxGeometry>
        </mxCell>
        <mxCell id="1032" value="&amp;lt;&amp;lt;TCP/IP:80&amp;gt;&amp;gt;" style="text;html=1;resizable=0;points=[];align=center;verticalAlign=middle;labelBackgroundColor=#ffffff;" parent="990" vertex="1" connectable="0">
          <mxGeometry x="0.9167" relative="1" as="geometry">
            <mxPoint y="1" as="offset" />
          </mxGeometry>
        </mxCell>
        <mxCell id="527" value="&lt;b&gt;&amp;lt;&amp;lt;Device&amp;gt;&amp;gt;&lt;br&gt;:&lt;/b&gt;LoadBalancer" style="verticalAlign=top;align=center;spacingTop=8;spacingLeft=2;spacingRight=12;shape=cube;size=10;direction=south;fontStyle=4;html=1;" parent="1" vertex="1">
          <mxGeometry x="670" y="830.5" width="200" height="109" as="geometry" />
        </mxCell>
        <mxCell id="528" value="&lt;font size=&quot;1&quot;&gt;&lt;b style=&quot;font-size: 12px&quot;&gt;&amp;lt;&amp;lt;Artifact&amp;gt;&amp;gt;&lt;br&gt;&lt;/b&gt;&lt;/font&gt;LoadBalancer&lt;br&gt;" style="html=1;" parent="1" vertex="1">
          <mxGeometry x="700.5" y="887.5" width="137" height="42" as="geometry" />
        </mxCell>
        <mxCell id="529" value="" style="shape=component;jettyWidth=8;jettyHeight=4;" parent="528" vertex="1">
          <mxGeometry x="1" width="20" height="20" relative="1" as="geometry">
            <mxPoint x="-27" y="7" as="offset" />
          </mxGeometry>
        </mxCell>
        <mxCell id="995" style="edgeStyle=orthogonalEdgeStyle;rounded=1;html=1;entryX=0.25;entryY=0;endArrow=none;endFill=0;jettySize=auto;orthogonalLoop=1;exitX=0.998;exitY=0.113;exitDx=0;exitDy=0;exitPerimeter=0;" parent="1" source="461" target="474" edge="1">
          <mxGeometry relative="1" as="geometry">
            <Array as="points">
              <mxPoint x="3332" y="697" />
            </Array>
          </mxGeometry>
        </mxCell>
        <mxCell id="1034" value="&amp;lt;&amp;lt;TCP/IP:80&amp;gt;&amp;gt;" style="text;html=1;resizable=0;points=[];align=center;verticalAlign=middle;labelBackgroundColor=#ffffff;" parent="995" vertex="1" connectable="0">
          <mxGeometry x="0.7897" y="4" relative="1" as="geometry">
            <mxPoint x="-10.36" y="7.020000000000003" as="offset" />
          </mxGeometry>
        </mxCell>
        <mxCell id="997" style="edgeStyle=orthogonalEdgeStyle;rounded=1;html=1;entryX=0;entryY=0.25;endArrow=none;endFill=0;jettySize=auto;orthogonalLoop=1;" parent="1" source="531" target="500" edge="1">
          <mxGeometry relative="1" as="geometry">
            <Array as="points">
              <mxPoint x="3695" y="-61" />
              <mxPoint x="2115" y="-61" />
              <mxPoint x="2115" y="60" />
              <mxPoint x="2081" y="60" />
            </Array>
          </mxGeometry>
        </mxCell>
        <mxCell id="1041" value="&amp;lt;&amp;lt;TCP/IP:3000&amp;gt;&amp;gt;" style="text;html=1;resizable=0;points=[];align=center;verticalAlign=middle;labelBackgroundColor=#ffffff;" parent="997" vertex="1" connectable="0">
          <mxGeometry x="-0.1078" y="3" relative="1" as="geometry">
            <mxPoint y="-1" as="offset" />
          </mxGeometry>
        </mxCell>
        <mxCell id="531" value="&lt;b&gt;&amp;lt;&amp;lt;Device&amp;gt;&amp;gt;&lt;/b&gt;&lt;br&gt;:Ubuntu Server&lt;br&gt;" style="verticalAlign=top;align=center;spacingTop=8;spacingLeft=2;spacingRight=12;shape=cube;size=10;direction=south;fontStyle=4;html=1;" parent="1" vertex="1">
          <mxGeometry x="3540" y="8.999954223632812" width="310" height="320" as="geometry" />
        </mxCell>
        <mxCell id="573" value="&lt;div style=&quot;text-align: center&quot;&gt;&lt;b&gt;&amp;lt;&amp;lt;Device&amp;gt;&amp;gt;&lt;/b&gt;&lt;br&gt;:RHEL&lt;br&gt;&lt;/div&gt;" style="verticalAlign=top;align=center;spacingTop=8;spacingLeft=2;spacingRight=12;shape=cube;size=10;direction=south;fontStyle=4;html=1;" parent="1" vertex="1">
          <mxGeometry x="1030" y="562" width="275" height="408" as="geometry" />
        </mxCell>
        <mxCell id="574" value="&lt;b&gt;&amp;lt;&amp;lt;Kubernetes&amp;gt;&amp;gt;&lt;/b&gt;&lt;br&gt;:LoadBalancer&lt;br&gt;" style="verticalAlign=top;align=center;spacingTop=8;spacingLeft=2;spacingRight=12;shape=cube;size=10;direction=south;fontStyle=4;html=1;" parent="1" vertex="1">
          <mxGeometry x="1060" y="607" width="218" height="113" as="geometry" />
        </mxCell>
        <mxCell id="575" value="&lt;b&gt;&amp;lt;&amp;lt;Artifact&amp;gt;&amp;gt;&lt;/b&gt;&lt;br&gt;LoadBalancer Nodes" style="html=1;" parent="1" vertex="1">
          <mxGeometry x="1081.5" y="664.35" width="162.5" height="29" as="geometry" />
        </mxCell>
        <mxCell id="576" value="" style="shape=component;jettyWidth=8;jettyHeight=4;" parent="575" vertex="1">
          <mxGeometry x="1" width="21" height="20" relative="1" as="geometry">
            <mxPoint x="-28" y="7" as="offset" />
          </mxGeometry>
        </mxCell>
        <mxCell id="607" style="edgeStyle=orthogonalEdgeStyle;shape=link;rounded=0;html=1;exitX=0.5;exitY=1;jettySize=auto;orthogonalLoop=1;fontColor=#000000;" parent="1" edge="1">
          <mxGeometry relative="1" as="geometry">
            <mxPoint x="1872.4285714285716" y="200.28571428571468" as="sourcePoint" />
            <mxPoint x="1872.4285714285716" y="200.9999542236328" as="targetPoint" />
          </mxGeometry>
        </mxCell>
        <mxCell id="619" value="&lt;b&gt;&amp;lt;&amp;lt;Device&amp;gt;&amp;gt;&lt;br&gt;:&lt;/b&gt;Monitoreo&lt;br&gt;" style="verticalAlign=top;align=center;spacingTop=8;spacingLeft=2;spacingRight=12;shape=cube;size=10;direction=south;fontStyle=4;html=1;" parent="1" vertex="1">
          <mxGeometry x="3557" y="58.99995422363281" width="260" height="90" as="geometry" />
        </mxCell>
        <mxCell id="620" value="&lt;font size=&quot;1&quot;&gt;&lt;span style=&quot;font-size: 12px&quot;&gt;&lt;b&gt;&amp;lt;&amp;lt;Artifact&amp;gt;&amp;gt;&lt;br&gt;&lt;/b&gt;Prometheus&lt;/span&gt;&lt;/font&gt;&lt;br&gt;" style="html=1;fontStyle=0" parent="1" vertex="1">
          <mxGeometry x="3587" y="107.99995422363281" width="200" height="30" as="geometry" />
        </mxCell>
        <mxCell id="621" value="" style="shape=component;jettyWidth=8;jettyHeight=4;" parent="620" vertex="1">
          <mxGeometry x="1" width="20" height="20" relative="1" as="geometry">
            <mxPoint x="-27" y="7" as="offset" />
          </mxGeometry>
        </mxCell>
        <mxCell id="622" value="&lt;b&gt;&amp;lt;&amp;lt;Device&amp;gt;&amp;gt;&lt;br&gt;:&lt;/b&gt;Monitoreo&lt;br&gt;" style="verticalAlign=top;align=center;spacingTop=8;spacingLeft=2;spacingRight=12;shape=cube;size=10;direction=south;fontStyle=4;html=1;" parent="1" vertex="1">
          <mxGeometry x="3557" y="228.9999542236328" width="260" height="90" as="geometry" />
        </mxCell>
        <mxCell id="623" value="&lt;font size=&quot;1&quot;&gt;&lt;span style=&quot;font-size: 12px&quot;&gt;&lt;b&gt;&amp;lt;&amp;lt;Artifact&amp;gt;&amp;gt;&lt;br&gt;&lt;/b&gt;Grafana&lt;/span&gt;&lt;/font&gt;&lt;br&gt;" style="html=1;fontStyle=0" parent="1" vertex="1">
          <mxGeometry x="3579" y="277.9999542236328" width="200" height="30" as="geometry" />
        </mxCell>
        <mxCell id="624" value="" style="shape=component;jettyWidth=8;jettyHeight=4;" parent="623" vertex="1">
          <mxGeometry x="1" width="20" height="20" relative="1" as="geometry">
            <mxPoint x="-27" y="7" as="offset" />
          </mxGeometry>
        </mxCell>
        <mxCell id="625" value="" style="endArrow=none;html=1;fontColor=#000000;entryX=1;entryY=0.5;" parent="1" source="622" target="619" edge="1">
          <mxGeometry width="50" height="50" relative="1" as="geometry">
            <mxPoint x="3469" y="368.9999542236328" as="sourcePoint" />
            <mxPoint x="3519" y="318.9999542236328" as="targetPoint" />
          </mxGeometry>
        </mxCell>
        <mxCell id="626" value="&amp;lt;&amp;lt;HTTP:3000&amp;gt;&amp;gt;" style="text;html=1;resizable=0;points=[];align=center;verticalAlign=middle;labelBackgroundColor=#ffffff;fontColor=#000000;" parent="625" vertex="1" connectable="0">
          <mxGeometry x="0.3804" y="-1" relative="1" as="geometry">
            <mxPoint x="-1" y="21.29" as="offset" />
          </mxGeometry>
        </mxCell>
        <mxCell id="639" value="&lt;b&gt;&amp;lt;&amp;lt;Device&amp;gt;&amp;gt;&lt;/b&gt;&lt;br&gt;:ClusterMongoDB" style="verticalAlign=top;align=center;spacingTop=8;spacingLeft=2;spacingRight=12;shape=cube;size=10;direction=south;fontStyle=4;html=1;" parent="1" vertex="1">
          <mxGeometry x="1070" y="1362.92" width="960" height="334" as="geometry" />
        </mxCell>
        <mxCell id="844" value="&lt;b&gt;&amp;lt;&amp;lt;Kubernetes&amp;gt;&amp;gt;&lt;/b&gt;&lt;br&gt;:Master&lt;br&gt;" style="verticalAlign=top;align=center;spacingTop=8;spacingLeft=2;spacingRight=12;shape=cube;size=10;direction=south;fontStyle=4;html=1;" parent="1" vertex="1">
          <mxGeometry x="1050" y="286" width="228" height="94" as="geometry" />
        </mxCell>
        <mxCell id="845" value="&lt;b&gt;&amp;lt;&amp;lt;Artifact&amp;gt;&amp;gt;&lt;/b&gt;&lt;br&gt;Master Node" style="html=1;" parent="1" vertex="1">
          <mxGeometry x="1080" y="334" width="165.5" height="30" as="geometry" />
        </mxCell>
        <mxCell id="846" value="" style="shape=component;jettyWidth=8;jettyHeight=4;" parent="845" vertex="1">
          <mxGeometry x="1" width="21" height="20" relative="1" as="geometry">
            <mxPoint x="-28" y="7" as="offset" />
          </mxGeometry>
        </mxCell>
        <mxCell id="847" value="&lt;b&gt;&amp;lt;&amp;lt;Kubernetes&amp;gt;&amp;gt;&lt;/b&gt;&lt;br&gt;:Master&lt;br&gt;" style="verticalAlign=top;align=center;spacingTop=8;spacingLeft=2;spacingRight=12;shape=cube;size=10;direction=south;fontStyle=4;html=1;" parent="1" vertex="1">
          <mxGeometry x="1050" y="388" width="228" height="102" as="geometry" />
        </mxCell>
        <mxCell id="848" value="&lt;b&gt;&amp;lt;&amp;lt;Artifact&amp;gt;&amp;gt;&lt;/b&gt;&lt;br&gt;Master Node" style="html=1;" parent="1" vertex="1">
          <mxGeometry x="1080" y="439" width="165.5" height="30" as="geometry" />
        </mxCell>
        <mxCell id="849" value="" style="shape=component;jettyWidth=8;jettyHeight=4;" parent="848" vertex="1">
          <mxGeometry x="1" width="21" height="20" relative="1" as="geometry">
            <mxPoint x="-28" y="7" as="offset" />
          </mxGeometry>
        </mxCell>
        <mxCell id="854" value="&lt;b&gt;&amp;lt;&amp;lt;Kubernetes&amp;gt;&amp;gt;&lt;/b&gt;&lt;br&gt;:LoadBalancer&lt;br&gt;" style="verticalAlign=top;align=center;spacingTop=8;spacingLeft=2;spacingRight=12;shape=cube;size=10;direction=south;fontStyle=4;html=1;" parent="1" vertex="1">
          <mxGeometry x="1060" y="727" width="216.5" height="111" as="geometry" />
        </mxCell>
        <mxCell id="855" value="&lt;b&gt;&amp;lt;&amp;lt;Artifact&amp;gt;&amp;gt;&lt;/b&gt;&lt;br&gt;LoadBalancer Nodes" style="html=1;" parent="1" vertex="1">
          <mxGeometry x="1086.25" y="780.5" width="162.5" height="29" as="geometry" />
        </mxCell>
        <mxCell id="856" value="" style="shape=component;jettyWidth=8;jettyHeight=4;" parent="855" vertex="1">
          <mxGeometry x="1" width="21" height="20" relative="1" as="geometry">
            <mxPoint x="-28" y="7" as="offset" />
          </mxGeometry>
        </mxCell>
        <mxCell id="859" value="&lt;div style=&quot;text-align: center&quot;&gt;&lt;div&gt;&lt;b&gt;&amp;lt;&amp;lt;Kubernetes&amp;gt;&amp;gt;&lt;/b&gt;&lt;/div&gt;&lt;div&gt;:Worker&lt;/div&gt;&lt;/div&gt;" style="verticalAlign=top;align=center;spacingTop=8;spacingLeft=2;spacingRight=12;shape=cube;size=10;direction=south;fontStyle=4;html=1;" parent="1" vertex="1">
          <mxGeometry x="1750" y="145" width="530" height="215" as="geometry" />
        </mxCell>
        <mxCell id="863" value="&lt;div style=&quot;text-align: center&quot;&gt;&lt;div&gt;&lt;b&gt;&amp;lt;&amp;lt;Kubernetes&amp;gt;&amp;gt;&lt;/b&gt;&lt;/div&gt;&lt;div&gt;:Worker&lt;/div&gt;&lt;/div&gt;" style="verticalAlign=top;align=center;spacingTop=8;spacingLeft=2;spacingRight=12;shape=cube;size=10;direction=south;fontStyle=4;html=1;" parent="1" vertex="1">
          <mxGeometry x="1430" y="593.5" width="305" height="258" as="geometry" />
        </mxCell>
        <mxCell id="867" value="&lt;div style=&quot;text-align: center&quot;&gt;&lt;div&gt;&lt;b&gt;&amp;lt;&amp;lt;Kubernetes&amp;gt;&amp;gt;&lt;/b&gt;&lt;/div&gt;&lt;div&gt;:Worker&lt;/div&gt;&lt;/div&gt;" style="verticalAlign=top;align=center;spacingTop=8;spacingLeft=2;spacingRight=12;shape=cube;size=10;direction=south;fontStyle=4;html=1;" parent="1" vertex="1">
          <mxGeometry x="1747" y="780.5" width="290.5" height="200" as="geometry" />
        </mxCell>
        <mxCell id="910" value="" style="endArrow=none;html=1;exitX=0.5;exitY=0;edgeStyle=orthogonalEdgeStyle;" parent="1" source="527" target="573" edge="1">
          <mxGeometry width="50" height="50" relative="1" as="geometry">
            <mxPoint x="820" y="930" as="sourcePoint" />
            <mxPoint x="870" y="880" as="targetPoint" />
          </mxGeometry>
        </mxCell>
        <mxCell id="912" value="&lt;span&gt;&amp;lt;&amp;lt;TCP/IP:[32760]&amp;gt;&amp;gt;&lt;/span&gt;" style="text;html=1;resizable=0;points=[];align=center;verticalAlign=middle;labelBackgroundColor=#ffffff;" parent="910" vertex="1" connectable="0">
          <mxGeometry x="-0.1187" y="-1" relative="1" as="geometry">
            <mxPoint x="-31" y="-92.5" as="offset" />
          </mxGeometry>
        </mxCell>
        <mxCell id="915" value="" style="endArrow=none;html=1;exitX=0.25;exitY=0;entryX=0.25;entryY=1;edgeStyle=orthogonalEdgeStyle;" parent="1" source="496" target="500" edge="1">
          <mxGeometry width="50" height="50" relative="1" as="geometry">
            <mxPoint x="1420" y="240" as="sourcePoint" />
            <mxPoint x="1470" y="190" as="targetPoint" />
          </mxGeometry>
        </mxCell>
        <mxCell id="916" value="&amp;lt;&amp;lt;TCP/IP:[8080,6443,2379-2380]&amp;gt;&amp;gt;" style="text;html=1;resizable=0;points=[];align=center;verticalAlign=middle;labelBackgroundColor=#ffffff;" parent="915" vertex="1" connectable="0">
          <mxGeometry x="-0.1237" relative="1" as="geometry">
            <mxPoint as="offset" />
          </mxGeometry>
        </mxCell>
        <mxCell id="919" value="" style="endArrow=none;html=1;exitX=0.501;exitY=-0.002;entryX=0.75;entryY=1;edgeStyle=orthogonalEdgeStyle;exitDx=0;exitDy=0;exitPerimeter=0;" parent="1" source="573" target="500" edge="1">
          <mxGeometry width="50" height="50" relative="1" as="geometry">
            <mxPoint x="1390" y="800" as="sourcePoint" />
            <mxPoint x="1440" y="750" as="targetPoint" />
          </mxGeometry>
        </mxCell>
        <mxCell id="920" value="&lt;span style=&quot;font-size: 11px;&quot;&gt;&amp;lt;&amp;lt;TCP/IP:[80,443,10250,8285,8472,7001-7099]&amp;gt;&amp;gt;&lt;/span&gt;" style="text;html=1;resizable=0;points=[];align=center;verticalAlign=middle;labelBackgroundColor=#ffffff;fontSize=11;" parent="919" vertex="1" connectable="0">
          <mxGeometry x="0.0739" y="2" relative="1" as="geometry">
            <mxPoint x="65.5" y="52.4" as="offset" />
          </mxGeometry>
        </mxCell>
        <mxCell id="927" value="callback" style="html=1;verticalAlign=bottom;endArrow=block;exitX=0.456;exitY=0.999;edgeStyle=orthogonalEdgeStyle;exitDx=0;exitDy=0;exitPerimeter=0;" parent="1" source="461" edge="1">
          <mxGeometry relative="1" as="geometry">
            <mxPoint x="2609" y="500" as="sourcePoint" />
            <mxPoint x="2383" y="122" as="targetPoint" />
            <Array as="points">
              <mxPoint x="2721" y="121" />
              <mxPoint x="2550" y="121" />
              <mxPoint x="2550" y="122" />
              <mxPoint x="2450" y="122" />
            </Array>
          </mxGeometry>
        </mxCell>
        <mxCell id="928" value="return" style="html=1;verticalAlign=bottom;endArrow=open;dashed=1;endSize=8;entryX=0.75;entryY=1;" parent="1" target="461" edge="1">
          <mxGeometry relative="1" as="geometry">
            <mxPoint x="2780" y="255" as="targetPoint" />
            <mxPoint x="2383" y="175" as="sourcePoint" />
          </mxGeometry>
        </mxCell>
        <mxCell id="929" value="" style="endArrow=none;html=1;fontColor=#000000;entryX=1;entryY=0.5;exitX=0;exitY=0.5;" parent="1" source="476" target="475" edge="1">
          <mxGeometry width="50" height="50" relative="1" as="geometry">
            <mxPoint x="3094" y="826" as="sourcePoint" />
            <mxPoint x="3091.8335774739585" y="756.5" as="targetPoint" />
          </mxGeometry>
        </mxCell>
        <mxCell id="930" value="&amp;lt;&amp;lt;TCP/IP:[9201-9210]&amp;gt;&amp;gt;" style="text;html=1;resizable=0;points=[];align=center;verticalAlign=middle;labelBackgroundColor=#ffffff;fontColor=#000000;" parent="929" vertex="1" connectable="0">
          <mxGeometry x="-0.3815" relative="1" as="geometry">
            <mxPoint y="-18.5" as="offset" />
          </mxGeometry>
        </mxCell>
        <mxCell id="931" value="" style="endArrow=none;html=1;fontColor=#000000;entryX=1;entryY=0.5;exitX=0;exitY=0.5;" parent="1" source="477" target="476" edge="1">
          <mxGeometry width="50" height="50" relative="1" as="geometry">
            <mxPoint x="3092.557489642273" y="1016.0000813802085" as="sourcePoint" />
            <mxPoint x="3093" y="946" as="targetPoint" />
          </mxGeometry>
        </mxCell>
        <mxCell id="932" value="&amp;lt;&amp;lt;HTTP:8080&amp;gt;&amp;gt;" style="text;html=1;resizable=0;points=[];align=center;verticalAlign=middle;labelBackgroundColor=#ffffff;fontColor=#000000;" parent="931" vertex="1" connectable="0">
          <mxGeometry x="-0.325" y="2" relative="1" as="geometry">
            <mxPoint x="2" y="-21.5" as="offset" />
          </mxGeometry>
        </mxCell>
        <mxCell id="1147" style="edgeStyle=orthogonalEdgeStyle;rounded=1;html=1;entryX=0.5;entryY=1;startArrow=none;startFill=0;endArrow=none;endFill=0;jettySize=auto;orthogonalLoop=1;" parent="1" source="957" target="474" edge="1">
          <mxGeometry relative="1" as="geometry">
            <Array as="points">
              <mxPoint x="2830" y="1046" />
              <mxPoint x="2830" y="823" />
            </Array>
          </mxGeometry>
        </mxCell>
        <mxCell id="1155" value="&amp;lt;&amp;lt;TCP/IP:80&amp;gt;&amp;gt;" style="text;html=1;resizable=0;points=[];align=center;verticalAlign=middle;labelBackgroundColor=#ffffff;" parent="1147" vertex="1" connectable="0">
          <mxGeometry x="-0.4376" y="-1" relative="1" as="geometry">
            <mxPoint as="offset" />
          </mxGeometry>
        </mxCell>
        <mxCell id="961" value="" style="endArrow=none;html=1;entryX=0.5;entryY=1;exitX=0.75;exitY=0;edgeStyle=orthogonalEdgeStyle;" parent="1" source="473" target="957" edge="1">
          <mxGeometry width="50" height="50" relative="1" as="geometry">
            <mxPoint x="2620" y="950" as="sourcePoint" />
            <mxPoint x="2670" y="900" as="targetPoint" />
            <Array as="points">
              <mxPoint x="2400" y="801" />
              <mxPoint x="2400" y="1046" />
            </Array>
          </mxGeometry>
        </mxCell>
        <mxCell id="1054" value="" style="endArrow=none;html=1;entryX=1;entryY=0.5;exitX=0.75;exitY=0;edgeStyle=orthogonalEdgeStyle;" parent="1" source="474" target="531" edge="1">
          <mxGeometry width="50" height="50" relative="1" as="geometry">
            <mxPoint x="3840" y="520" as="sourcePoint" />
            <mxPoint x="3890" y="470" as="targetPoint" />
            <Array as="points">
              <mxPoint x="3695" y="949" />
            </Array>
          </mxGeometry>
        </mxCell>
        <mxCell id="1055" value="&amp;lt;&amp;lt;TCP/IP:80&amp;gt;&amp;gt;" style="text;html=1;resizable=0;points=[];align=center;verticalAlign=middle;labelBackgroundColor=#ffffff;" parent="1054" vertex="1" connectable="0">
          <mxGeometry x="-0.3363" y="-6" relative="1" as="geometry">
            <mxPoint x="1" as="offset" />
          </mxGeometry>
        </mxCell>
        <mxCell id="1056" value="" style="endArrow=none;html=1;entryX=0.75;entryY=1;edgeStyle=orthogonalEdgeStyle;" parent="1" source="473" target="474" edge="1">
          <mxGeometry width="50" height="50" relative="1" as="geometry">
            <mxPoint x="2390" y="1080" as="sourcePoint" />
            <mxPoint x="2440" y="1030" as="targetPoint" />
            <Array as="points">
              <mxPoint x="1675" y="1120" />
              <mxPoint x="2880" y="1120" />
              <mxPoint x="2880" y="949" />
            </Array>
          </mxGeometry>
        </mxCell>
        <mxCell id="1057" value="&amp;lt;&amp;lt;TCP/IP:80&amp;gt;&amp;gt;" style="text;html=1;resizable=0;points=[];align=center;verticalAlign=middle;labelBackgroundColor=#ffffff;" parent="1056" vertex="1" connectable="0">
          <mxGeometry x="0.5249" y="-3" relative="1" as="geometry">
            <mxPoint x="-1" as="offset" />
          </mxGeometry>
        </mxCell>
        <mxCell id="1060" value="&lt;font style=&quot;font-size: 48px&quot;&gt;&lt;b&gt;ON - PREMISE&lt;/b&gt;&lt;/font&gt;" style="text;html=1;strokeColor=none;fillColor=none;align=center;verticalAlign=middle;whiteSpace=wrap;rounded=0;dashed=1;" parent="1" vertex="1">
          <mxGeometry x="-1133" y="-420" width="380" height="45" as="geometry" />
        </mxCell>
        <mxCell id="1061" value="&lt;font style=&quot;font-size: 48px&quot;&gt;&lt;b&gt;SISTEMA DE CUENTA UNICA&lt;/b&gt;&lt;/font&gt;" style="text;html=1;strokeColor=none;fillColor=none;align=center;verticalAlign=middle;whiteSpace=wrap;rounded=0;dashed=1;" parent="1" vertex="1">
          <mxGeometry x="350" y="-241" width="380" height="45" as="geometry" />
        </mxCell>
        <mxCell id="1063" value="&lt;font size=&quot;1&quot;&gt;&lt;b style=&quot;font-size: 32px&quot;&gt;vNet01&lt;/b&gt;&lt;/font&gt;" style="text;html=1;strokeColor=none;fillColor=none;align=center;verticalAlign=middle;whiteSpace=wrap;rounded=0;dashed=1;" parent="1" vertex="1">
          <mxGeometry x="540" y="3" width="380" height="45" as="geometry" />
        </mxCell>
        <mxCell id="1064" value="&lt;font size=&quot;1&quot;&gt;&lt;b style=&quot;font-size: 32px&quot;&gt;vNet02&lt;/b&gt;&lt;/font&gt;" style="text;html=1;strokeColor=none;fillColor=none;align=center;verticalAlign=middle;whiteSpace=wrap;rounded=0;dashed=1;" parent="1" vertex="1">
          <mxGeometry x="739" y="1270" width="380" height="52" as="geometry" />
        </mxCell>
        <mxCell id="1066" value="&lt;b&gt;LDB001&lt;/b&gt;" style="text;html=1;strokeColor=none;fillColor=none;align=center;verticalAlign=middle;whiteSpace=wrap;rounded=0;dashed=1;" parent="1" vertex="1">
          <mxGeometry x="804" y="847.5" width="62" height="20" as="geometry" />
        </mxCell>
        <mxCell id="1067" value="&lt;b&gt;K8SLD02&lt;/b&gt;" style="text;html=1;strokeColor=none;fillColor=none;align=center;verticalAlign=middle;whiteSpace=wrap;rounded=0;dashed=1;" parent="1" vertex="1">
          <mxGeometry x="1211" y="739.5" width="60" height="20" as="geometry" />
        </mxCell>
        <mxCell id="1068" value="&lt;b&gt;K8SMA01&lt;/b&gt;" style="text;html=1;strokeColor=none;fillColor=none;align=center;verticalAlign=middle;whiteSpace=wrap;rounded=0;dashed=1;" parent="1" vertex="1">
          <mxGeometry x="1209" y="192" width="60" height="20" as="geometry" />
        </mxCell>
        <mxCell id="1069" value="&lt;b&gt;K8SLD01&lt;/b&gt;" style="text;html=1;strokeColor=none;fillColor=none;align=center;verticalAlign=middle;whiteSpace=wrap;rounded=0;dashed=1;" parent="1" vertex="1">
          <mxGeometry x="1211" y="614.5" width="60" height="20" as="geometry" />
        </mxCell>
        <mxCell id="1070" value="&lt;b&gt;K8SMA02&lt;/b&gt;" style="text;html=1;strokeColor=none;fillColor=none;align=center;verticalAlign=middle;whiteSpace=wrap;rounded=0;dashed=1;" parent="1" vertex="1">
          <mxGeometry x="1208" y="297" width="60" height="20" as="geometry" />
        </mxCell>
        <mxCell id="1071" value="&lt;b&gt;K8SMA03&lt;/b&gt;" style="text;html=1;strokeColor=none;fillColor=none;align=center;verticalAlign=middle;whiteSpace=wrap;rounded=0;dashed=1;" parent="1" vertex="1">
          <mxGeometry x="1209" y="398.83" width="60" height="20" as="geometry" />
        </mxCell>
        <mxCell id="1073" value="&lt;b&gt;K8SWK01&lt;/b&gt;" style="text;html=1;strokeColor=none;fillColor=none;align=center;verticalAlign=middle;whiteSpace=wrap;rounded=0;dashed=1;" parent="1" vertex="1">
          <mxGeometry x="1649" y="159" width="60" height="20" as="geometry" />
        </mxCell>
        <mxCell id="1074" value="&lt;b&gt;K8SWK08&lt;/b&gt;" style="text;html=1;strokeColor=none;fillColor=none;align=center;verticalAlign=middle;whiteSpace=wrap;rounded=0;dashed=1;" parent="1" vertex="1">
          <mxGeometry x="1967.17" y="792.79" width="60" height="20" as="geometry" />
        </mxCell>
        <mxCell id="1075" value="&lt;b&gt;K8SWK02&lt;/b&gt;" style="text;html=1;strokeColor=none;fillColor=none;align=center;verticalAlign=middle;whiteSpace=wrap;rounded=0;dashed=1;" parent="1" vertex="1">
          <mxGeometry x="2170" y="157" width="60" height="20" as="geometry" />
        </mxCell>
        <mxCell id="1076" value="&lt;b&gt;K8SWK07&lt;/b&gt;" style="text;html=1;strokeColor=none;fillColor=none;align=center;verticalAlign=middle;whiteSpace=wrap;rounded=0;dashed=1;" parent="1" vertex="1">
          <mxGeometry x="1657.5" y="611" width="60" height="20" as="geometry" />
        </mxCell>
        <mxCell id="1077" value="&lt;b&gt;MONDB01&lt;/b&gt;" style="text;html=1;strokeColor=none;fillColor=none;align=center;verticalAlign=middle;whiteSpace=wrap;rounded=0;dashed=1;" parent="1" vertex="1">
          <mxGeometry x="1961" y="1380" width="40" height="20" as="geometry" />
        </mxCell>
        <mxCell id="1078" value="&lt;b&gt;MONVM01&lt;/b&gt;" style="text;html=1;strokeColor=none;fillColor=none;align=center;verticalAlign=middle;whiteSpace=wrap;rounded=0;dashed=1;" parent="1" vertex="1">
          <mxGeometry x="3158.5" y="586" width="45" height="20" as="geometry" />
        </mxCell>
        <mxCell id="1080" value="&lt;b&gt;MONVM02&lt;/b&gt;" style="text;html=1;strokeColor=none;fillColor=none;align=center;verticalAlign=middle;whiteSpace=wrap;rounded=0;dashed=1;" parent="1" vertex="1">
          <mxGeometry x="3772" y="28" width="45" height="20" as="geometry" />
        </mxCell>
        <mxCell id="3588effd44935446-1094" value="&lt;div style=&quot;text-align: center&quot;&gt;&lt;div&gt;&lt;b&gt;&amp;lt;&amp;lt;Device&amp;gt;&amp;gt;&lt;/b&gt;&lt;/div&gt;&lt;div&gt;:Cluster&lt;/div&gt;&lt;/div&gt;" style="verticalAlign=top;align=center;spacingTop=8;spacingLeft=2;spacingRight=12;shape=cube;size=10;direction=south;fontStyle=4;html=1;" parent="1" vertex="1">
          <mxGeometry x="1750" y="-400" width="700" height="190" as="geometry" />
        </mxCell>
        <mxCell id="3588effd44935446-1095" value="&amp;lt;&amp;lt;Device&amp;gt;&amp;gt;&lt;br&gt;:RHEL" style="verticalAlign=top;align=center;spacingTop=8;spacingLeft=2;spacingRight=12;shape=cube;size=10;direction=south;fontStyle=4;html=1;" parent="1" vertex="1">
          <mxGeometry x="1770" y="-341" width="210" height="121" as="geometry" />
        </mxCell>
        <mxCell id="3588effd44935446-1096" value="&lt;b&gt;&amp;lt;&amp;lt;Artifact&amp;gt;&amp;gt;&lt;/b&gt;&lt;br&gt;API Gateway" style="html=1;" parent="1" vertex="1">
          <mxGeometry x="1780.5" y="-279.0000457763672" width="170" height="36" as="geometry" />
        </mxCell>
        <mxCell id="3588effd44935446-1097" value="" style="shape=component;jettyWidth=8;jettyHeight=4;" parent="3588effd44935446-1096" vertex="1">
          <mxGeometry x="1" width="21" height="20" relative="1" as="geometry">
            <mxPoint x="-26" y="2.5" as="offset" />
          </mxGeometry>
        </mxCell>
        <mxCell id="3588effd44935446-1099" value="&amp;lt;&amp;lt;Device&amp;gt;&amp;gt;&lt;br&gt;:RHEL" style="verticalAlign=top;align=center;spacingTop=8;spacingLeft=2;spacingRight=12;shape=cube;size=10;direction=south;fontStyle=4;html=1;" parent="1" vertex="1">
          <mxGeometry x="2209" y="-344.5" width="210" height="121" as="geometry" />
        </mxCell>
        <mxCell id="3588effd44935446-1100" value="&lt;b&gt;&amp;lt;&amp;lt;Artifact&amp;gt;&amp;gt;&lt;/b&gt;&lt;br&gt;API Gateway" style="html=1;" parent="1" vertex="1">
          <mxGeometry x="2230" y="-277" width="166" height="36" as="geometry" />
        </mxCell>
        <mxCell id="3588effd44935446-1101" value="" style="shape=component;jettyWidth=8;jettyHeight=4;" parent="3588effd44935446-1100" vertex="1">
          <mxGeometry x="1" width="21" height="20" relative="1" as="geometry">
            <mxPoint x="-26" y="2.5" as="offset" />
          </mxGeometry>
        </mxCell>
        <mxCell id="3588effd44935446-1102" value="&amp;lt;&amp;lt;Device&amp;gt;&amp;gt;&lt;br&gt;:RHEL" style="verticalAlign=top;align=center;spacingTop=8;spacingLeft=2;spacingRight=12;shape=cube;size=10;direction=south;fontStyle=4;html=1;" parent="1" vertex="1">
          <mxGeometry x="1990" y="-344.5" width="210" height="121" as="geometry" />
        </mxCell>
        <mxCell id="3588effd44935446-1103" value="&lt;b&gt;&amp;lt;&amp;lt;Artifact&amp;gt;&amp;gt;&lt;/b&gt;&lt;br&gt;API Gateway" style="html=1;" parent="1" vertex="1">
          <mxGeometry x="2006" y="-279.0000457763672" width="170" height="36" as="geometry" />
        </mxCell>
        <mxCell id="3588effd44935446-1104" value="" style="shape=component;jettyWidth=8;jettyHeight=4;" parent="3588effd44935446-1103" vertex="1">
          <mxGeometry x="1" width="21" height="20" relative="1" as="geometry">
            <mxPoint x="-26" y="2.5" as="offset" />
          </mxGeometry>
        </mxCell>
        <mxCell id="3588effd44935446-1106" value="&lt;font size=&quot;1&quot;&gt;&lt;b style=&quot;font-size: 32px&quot;&gt;vNet04&lt;/b&gt;&lt;/font&gt;" style="text;html=1;strokeColor=none;fillColor=none;align=center;verticalAlign=middle;whiteSpace=wrap;rounded=0;dashed=1;" parent="1" vertex="1">
          <mxGeometry x="1626" y="-465" width="140" height="45" as="geometry" />
        </mxCell>
        <mxCell id="3588effd44935446-1111" style="edgeStyle=orthogonalEdgeStyle;rounded=1;jumpStyle=sharp;html=1;jettySize=auto;orthogonalLoop=1;endArrow=none;endFill=0;entryX=0.5;entryY=0;" parent="1" source="3588effd44935446-1094" target="474" edge="1">
          <mxGeometry relative="1" as="geometry">
            <mxPoint x="3020" y="590" as="targetPoint" />
            <Array as="points">
              <mxPoint x="3520" y="-303" />
              <mxPoint x="3520" y="823" />
            </Array>
          </mxGeometry>
        </mxCell>
        <mxCell id="3588effd44935446-1115" value="&amp;lt;&amp;lt;TCP/IP: 80&amp;gt;&amp;gt;" style="text;html=1;resizable=0;points=[];align=center;verticalAlign=middle;labelBackgroundColor=#ffffff;" parent="3588effd44935446-1111" vertex="1" connectable="0">
          <mxGeometry x="-0.2626" y="-2" relative="1" as="geometry">
            <mxPoint y="-1" as="offset" />
          </mxGeometry>
        </mxCell>
        <mxCell id="3588effd44935446-1116" value="&lt;font size=&quot;1&quot;&gt;&lt;b style=&quot;font-size: 32px&quot;&gt;vNet03&lt;/b&gt;&lt;/font&gt;" style="text;html=1;strokeColor=none;fillColor=none;align=center;verticalAlign=middle;whiteSpace=wrap;rounded=0;dashed=1;" parent="1" vertex="1">
          <mxGeometry x="2610" y="419.17" width="180" height="45" as="geometry" />
        </mxCell>
        <mxCell id="3588effd44935446-1117" value="&lt;div style=&quot;text-align: center&quot;&gt;&lt;div&gt;&lt;b&gt;&amp;lt;&amp;lt;Kubernetes&amp;gt;&amp;gt;&lt;/b&gt;&lt;/div&gt;&lt;div&gt;:Worker&lt;/div&gt;&lt;/div&gt;" style="verticalAlign=top;align=center;spacingTop=8;spacingLeft=2;spacingRight=12;shape=cube;size=10;direction=south;fontStyle=4;html=1;" parent="1" vertex="1">
          <mxGeometry x="1747" y="522.5" width="530" height="248" as="geometry" />
        </mxCell>
        <mxCell id="3588effd44935446-1121" value="&lt;b&gt;K8SWK04&lt;/b&gt;" style="text;html=1;strokeColor=none;fillColor=none;align=center;verticalAlign=middle;whiteSpace=wrap;rounded=0;dashed=1;" parent="1" vertex="1">
          <mxGeometry x="2198" y="535" width="60" height="15.5" as="geometry" />
        </mxCell>
        <mxCell id="1103" value="&lt;div style=&quot;text-align: center&quot;&gt;&lt;div&gt;&lt;b&gt;&amp;lt;&amp;lt;Kubernetes&amp;gt;&amp;gt;&lt;/b&gt;&lt;/div&gt;&lt;div&gt;:Worker&lt;/div&gt;&lt;/div&gt;" style="verticalAlign=top;align=center;spacingTop=8;spacingLeft=2;spacingRight=12;shape=cube;size=10;direction=south;fontStyle=4;html=1;" parent="1" vertex="1">
          <mxGeometry x="1749" y="373.33" width="530" height="136.67" as="geometry" />
        </mxCell>
        <mxCell id="1107" value="&lt;b&gt;K8WK03&lt;/b&gt;" style="text;html=1;strokeColor=none;fillColor=none;align=center;verticalAlign=middle;whiteSpace=wrap;rounded=0;dashed=1;" parent="1" vertex="1">
          <mxGeometry x="2164.5" y="389.33" width="60" height="20" as="geometry" />
        </mxCell>
        <mxCell id="1139" style="edgeStyle=orthogonalEdgeStyle;rounded=1;html=1;exitX=0.25;exitY=0;entryX=0.25;entryY=0;startArrow=none;startFill=0;endArrow=none;endFill=0;jettySize=auto;orthogonalLoop=1;" parent="1" edge="1">
          <mxGeometry relative="1" as="geometry">
            <mxPoint x="508.5" y="282" as="sourcePoint" />
            <mxPoint x="508.5" y="282" as="targetPoint" />
          </mxGeometry>
        </mxCell>
        <mxCell id="1171" style="edgeStyle=orthogonalEdgeStyle;rounded=1;html=1;entryX=0;entryY=0.5;startArrow=none;startFill=0;endArrow=classic;endFill=1;jettySize=auto;orthogonalLoop=1;exitX=1;exitY=0.383;exitDx=0;exitDy=0;exitPerimeter=0;" parent="1" source="473" target="509" edge="1">
          <mxGeometry relative="1" as="geometry">
            <Array as="points">
              <mxPoint x="1840" y="1140" />
              <mxPoint x="1550" y="1140" />
            </Array>
            <mxPoint x="1830.5294117647063" y="1464" as="sourcePoint" />
          </mxGeometry>
        </mxCell>
        <mxCell id="1279" value="&amp;lt;&amp;lt;TCP/IP:10255&amp;gt;&amp;gt;" style="text;html=1;resizable=0;points=[];align=center;verticalAlign=middle;labelBackgroundColor=#ffffff;" parent="1171" vertex="1" connectable="0">
          <mxGeometry x="-0.0775" y="-1" relative="1" as="geometry">
            <mxPoint x="-98.43" y="-14.740000000000009" as="offset" />
          </mxGeometry>
        </mxCell>
        <mxCell id="1173" value="&lt;b&gt;&amp;lt;&amp;lt;Device&amp;gt;&amp;gt;&lt;br&gt;:&lt;/b&gt;LoadBalancer&lt;br&gt;" style="verticalAlign=top;align=center;spacingTop=8;spacingLeft=2;spacingRight=12;shape=cube;size=10;direction=south;fontStyle=4;html=1;" parent="1" vertex="1">
          <mxGeometry x="2830" y="295.91999999999996" width="174.83" height="105.17" as="geometry" />
        </mxCell>
        <mxCell id="1174" value="&lt;font size=&quot;1&quot;&gt;&lt;b&gt;&amp;lt;&amp;lt;Artifact&amp;gt;&amp;gt;&lt;br&gt;&lt;/b&gt;&lt;/font&gt;LoadBalancer&lt;br&gt;" style="html=1;" parent="1" vertex="1">
          <mxGeometry x="2840.0033914620535" y="355.50341471354153" width="137" height="30" as="geometry" />
        </mxCell>
        <mxCell id="1175" value="" style="shape=component;jettyWidth=8;jettyHeight=4;" parent="1174" vertex="1">
          <mxGeometry x="1" width="20" height="20" relative="1" as="geometry">
            <mxPoint x="-27" y="7" as="offset" />
          </mxGeometry>
        </mxCell>
        <mxCell id="1179" value="" style="endArrow=none;html=1;entryX=0;entryY=0;edgeStyle=orthogonalEdgeStyle;entryDx=105.17;entryDy=92.415;entryPerimeter=0;" parent="1" source="1130" target="1173" edge="1">
          <mxGeometry width="50" height="50" relative="1" as="geometry">
            <mxPoint x="2839" y="571" as="sourcePoint" />
            <mxPoint x="3160" y="480" as="targetPoint" />
            <Array as="points">
              <mxPoint x="2912" y="700" />
            </Array>
          </mxGeometry>
        </mxCell>
        <mxCell id="1185" value="&amp;lt;&amp;lt;TCP/IP:981&amp;gt;&amp;gt;" style="text;html=1;resizable=0;points=[];align=center;verticalAlign=middle;labelBackgroundColor=#ffffff;" parent="1179" vertex="1" connectable="0">
          <mxGeometry x="0.4044" y="-1" relative="1" as="geometry">
            <mxPoint x="-86" y="133.5" as="offset" />
          </mxGeometry>
        </mxCell>
        <mxCell id="1180" value="" style="endArrow=none;html=1;exitX=0;exitY=0;entryX=0;entryY=0;entryDx=180;entryDy=350;entryPerimeter=0;exitDx=0;exitDy=82.415;exitPerimeter=0;" parent="1" source="1173" target="461" edge="1">
          <mxGeometry width="50" height="50" relative="1" as="geometry">
            <mxPoint x="3110" y="450" as="sourcePoint" />
            <mxPoint x="3143.5" y="348.5" as="targetPoint" />
          </mxGeometry>
        </mxCell>
        <mxCell id="1182" value="&amp;lt;&amp;lt;TCP/IP:981&amp;gt;&amp;gt;" style="text;html=1;resizable=0;points=[];align=center;verticalAlign=middle;labelBackgroundColor=#ffffff;" parent="1180" vertex="1" connectable="0">
          <mxGeometry x="0.2518" y="-1" relative="1" as="geometry">
            <mxPoint x="-118.7" y="30.55" as="offset" />
          </mxGeometry>
        </mxCell>
        <mxCell id="1186" style="edgeStyle=orthogonalEdgeStyle;rounded=1;html=1;exitX=0.25;exitY=1;entryX=0.25;entryY=1;startArrow=none;startFill=0;endArrow=none;endFill=0;jettySize=auto;orthogonalLoop=1;" parent="1" edge="1">
          <mxGeometry relative="1" as="geometry">
            <mxPoint x="545.7498953683034" y="745.0029411764704" as="sourcePoint" />
            <mxPoint x="545.7498953683034" y="745.0029411764704" as="targetPoint" />
          </mxGeometry>
        </mxCell>
        <mxCell id="yC3nxN7uQtdNN0qrmy86-1673" style="edgeStyle=orthogonalEdgeStyle;rounded=0;orthogonalLoop=1;jettySize=auto;html=1;entryX=0;entryY=0;entryDx=59.5;entryDy=200;entryPerimeter=0;" edge="1" parent="1" source="1233" target="527">
          <mxGeometry relative="1" as="geometry">
            <Array as="points">
              <mxPoint x="590" y="990" />
              <mxPoint x="590" y="890" />
            </Array>
          </mxGeometry>
        </mxCell>
        <mxCell id="yC3nxN7uQtdNN0qrmy86-1686" style="edgeStyle=orthogonalEdgeStyle;rounded=0;orthogonalLoop=1;jettySize=auto;html=1;entryX=0;entryY=0;entryDx=179;entryDy=205;entryPerimeter=0;" edge="1" parent="1" source="1233" target="yC3nxN7uQtdNN0qrmy86-1676">
          <mxGeometry relative="1" as="geometry" />
        </mxCell>
        <mxCell id="1233" value="&amp;lt;&amp;lt;Device&amp;gt;&amp;gt;&lt;br&gt;:ClusterK8SIntegracionCuenta" style="verticalAlign=top;align=center;spacingTop=8;spacingLeft=2;spacingRight=12;shape=cube;size=10;direction=south;fontStyle=4;html=1;rounded=0;strokeColor=#0F0F0F;fillColor=none;" parent="1" vertex="1">
          <mxGeometry x="50" y="782.62" width="390" height="308" as="geometry" />
        </mxCell>
        <mxCell id="1241" style="edgeStyle=orthogonalEdgeStyle;rounded=1;html=1;exitX=0.5;exitY=0;entryX=0.5;entryY=0;startArrow=none;startFill=0;endArrow=none;endFill=0;jettySize=auto;orthogonalLoop=1;" parent="1" edge="1">
          <mxGeometry relative="1" as="geometry">
            <mxPoint x="-874.5" y="1272.5" as="sourcePoint" />
            <mxPoint x="-874.5" y="1272.5" as="targetPoint" />
          </mxGeometry>
        </mxCell>
        <mxCell id="1506" value="&lt;span&gt;«&lt;/span&gt;&lt;span&gt;microservice&lt;/span&gt;&lt;span&gt;»&lt;/span&gt;&lt;br&gt;&lt;span&gt;&lt;b&gt;cu-eventos-programados&lt;/b&gt;&lt;/span&gt;&lt;br&gt;" style="html=1;" parent="1" vertex="1">
          <mxGeometry x="2012" y="692.9" width="240" height="30" as="geometry" />
        </mxCell>
        <mxCell id="1507" value="" style="shape=component;jettyWidth=8;jettyHeight=4;" parent="1506" vertex="1">
          <mxGeometry x="1" width="21" height="20" relative="1" as="geometry">
            <mxPoint x="-28" y="3" as="offset" />
          </mxGeometry>
        </mxCell>
        <mxCell id="1508" value="&lt;span&gt;«&lt;/span&gt;&lt;span&gt;microservice&lt;/span&gt;&lt;span&gt;»&lt;/span&gt;&lt;br&gt;&lt;span&gt;&lt;b&gt;cu-motor-lanzamiento&lt;/b&gt;&lt;/span&gt;&lt;br&gt;" style="html=1;" parent="1" vertex="1">
          <mxGeometry x="1763" y="621.5" width="240" height="29" as="geometry" />
        </mxCell>
        <mxCell id="1509" value="" style="shape=component;jettyWidth=8;jettyHeight=4;" parent="1508" vertex="1">
          <mxGeometry x="1" width="21" height="20" relative="1" as="geometry">
            <mxPoint x="-28" y="3" as="offset" />
          </mxGeometry>
        </mxCell>
        <mxCell id="1510" value="&lt;span&gt;«&lt;/span&gt;&lt;span&gt;microservice&lt;/span&gt;&lt;span&gt;»&lt;/span&gt;&lt;br&gt;&lt;b&gt;cu-proceso-ajustes-cuenta-unica&lt;/b&gt;&lt;br&gt;" style="html=1;" parent="1" vertex="1">
          <mxGeometry x="1456" y="269" width="240" height="34" as="geometry" />
        </mxCell>
        <mxCell id="1511" value="" style="shape=component;jettyWidth=8;jettyHeight=4;" parent="1510" vertex="1">
          <mxGeometry x="1" width="21" height="20" relative="1" as="geometry">
            <mxPoint x="-28" y="3" as="offset" />
          </mxGeometry>
        </mxCell>
        <mxCell id="1512" value="&lt;span&gt;«&lt;/span&gt;&lt;span&gt;microservice&lt;/span&gt;&lt;span&gt;»&lt;/span&gt;&lt;br&gt;&lt;b&gt;cu-proceso-comunicacion-&lt;br&gt;diferencias-cuenta&lt;/b&gt;&lt;br&gt;" style="html=1;" parent="1" vertex="1">
          <mxGeometry x="1456" y="310.5" width="240" height="45" as="geometry" />
        </mxCell>
        <mxCell id="1513" value="" style="shape=component;jettyWidth=8;jettyHeight=4;" parent="1512" vertex="1">
          <mxGeometry x="1" width="21" height="20" relative="1" as="geometry">
            <mxPoint x="-28" y="3" as="offset" />
          </mxGeometry>
        </mxCell>
        <mxCell id="1514" value="&lt;span&gt;«&lt;/span&gt;&lt;span&gt;microservice&lt;/span&gt;&lt;span&gt;»&lt;/span&gt;&lt;br&gt;&lt;b&gt;cu-proceso-fraccionamiento&lt;/b&gt;&lt;br&gt;" style="html=1;" parent="1" vertex="1">
          <mxGeometry x="1456" y="365" width="240" height="30" as="geometry" />
        </mxCell>
        <mxCell id="1515" value="" style="shape=component;jettyWidth=8;jettyHeight=4;" parent="1514" vertex="1">
          <mxGeometry x="1" width="21" height="20" relative="1" as="geometry">
            <mxPoint x="-28" y="3" as="offset" />
          </mxGeometry>
        </mxCell>
        <mxCell id="1516" value="&lt;span&gt;«&lt;/span&gt;&lt;span&gt;microservice&lt;/span&gt;&lt;span&gt;»&lt;/span&gt;&lt;br&gt;&lt;b&gt;cu-proceso-pago-error&lt;/b&gt;&lt;br&gt;" style="html=1;" parent="1" vertex="1">
          <mxGeometry x="1456" y="405" width="240" height="30" as="geometry" />
        </mxCell>
        <mxCell id="1517" value="" style="shape=component;jettyWidth=8;jettyHeight=4;" parent="1516" vertex="1">
          <mxGeometry x="1" width="21" height="20" relative="1" as="geometry">
            <mxPoint x="-28" y="3" as="offset" />
          </mxGeometry>
        </mxCell>
        <mxCell id="1518" value="&lt;span&gt;«&lt;/span&gt;&lt;span&gt;microservice&lt;/span&gt;&lt;span&gt;»&lt;/span&gt;&lt;br&gt;&lt;b&gt;cu-proceso-reestruturacion-&lt;br&gt;reorganizacion&lt;/b&gt;&lt;br&gt;" style="html=1;" parent="1" vertex="1">
          <mxGeometry x="1456" y="444" width="240" height="44" as="geometry" />
        </mxCell>
        <mxCell id="1519" value="" style="shape=component;jettyWidth=8;jettyHeight=4;" parent="1518" vertex="1">
          <mxGeometry x="1" width="21" height="20" relative="1" as="geometry">
            <mxPoint x="-28" y="3" as="offset" />
          </mxGeometry>
        </mxCell>
        <mxCell id="1520" value="&lt;span&gt;«&lt;/span&gt;&lt;span&gt;microservice&lt;/span&gt;&lt;span&gt;»&lt;/span&gt;&lt;br&gt;&lt;b&gt;cu-proceso-suspension&lt;/b&gt;&lt;br&gt;" style="html=1;" parent="1" vertex="1">
          <mxGeometry x="1456" y="498" width="240" height="35" as="geometry" />
        </mxCell>
        <mxCell id="1521" value="" style="shape=component;jettyWidth=8;jettyHeight=4;" parent="1520" vertex="1">
          <mxGeometry x="1" width="21" height="20" relative="1" as="geometry">
            <mxPoint x="-28" y="3" as="offset" />
          </mxGeometry>
        </mxCell>
        <mxCell id="1522" value="&lt;span&gt;«&lt;/span&gt;&lt;span&gt;microservice&lt;/span&gt;&lt;span&gt;»&lt;/span&gt;&lt;br&gt;&lt;b&gt;cu-proceso-quiebra-judicial&lt;/b&gt;&lt;br&gt;" style="html=1;" parent="1" vertex="1">
          <mxGeometry x="1456" y="545.5" width="240" height="30" as="geometry" />
        </mxCell>
        <mxCell id="1523" value="" style="shape=component;jettyWidth=8;jettyHeight=4;" parent="1522" vertex="1">
          <mxGeometry x="1" width="21" height="20" relative="1" as="geometry">
            <mxPoint x="-28" y="3" as="offset" />
          </mxGeometry>
        </mxCell>
        <mxCell id="1525" value="&lt;span&gt;«&lt;/span&gt;&lt;span&gt;microservice&lt;/span&gt;&lt;span&gt;»&lt;/span&gt;&lt;br&gt;&lt;b&gt;cu-proceso-incumplimiento-&lt;br&gt;entidades-estado&lt;/b&gt;&lt;br&gt;" style="html=1;" parent="1" vertex="1">
          <mxGeometry x="1766" y="200" width="240" height="45" as="geometry" />
        </mxCell>
        <mxCell id="1526" value="" style="shape=component;jettyWidth=8;jettyHeight=4;" parent="1525" vertex="1">
          <mxGeometry x="1" width="21" height="20" relative="1" as="geometry">
            <mxPoint x="-28" y="3" as="offset" />
          </mxGeometry>
        </mxCell>
        <mxCell id="1527" value="&lt;span&gt;«&lt;/span&gt;&lt;span&gt;microservice&lt;/span&gt;&lt;span&gt;»&lt;/span&gt;&lt;br&gt;&lt;b&gt;cu-motor-&lt;/b&gt;&lt;b&gt;validacion&lt;/b&gt;&lt;br&gt;" style="html=1;" parent="1" vertex="1">
          <mxGeometry x="2012" y="657.5" width="240" height="30" as="geometry" />
        </mxCell>
        <mxCell id="1528" value="" style="shape=component;jettyWidth=8;jettyHeight=4;" parent="1527" vertex="1">
          <mxGeometry x="1" width="21" height="20" relative="1" as="geometry">
            <mxPoint x="-28" y="3" as="offset" />
          </mxGeometry>
        </mxCell>
        <mxCell id="1529" value="&lt;span&gt;«&lt;/span&gt;&lt;span&gt;microservice&lt;/span&gt;&lt;span&gt;»&lt;/span&gt;&lt;br&gt;&lt;b&gt;cu-proceso-prescripcion&lt;/b&gt;&lt;br&gt;" style="html=1;" parent="1" vertex="1">
          <mxGeometry x="1766" y="258.5" width="240" height="31.5" as="geometry" />
        </mxCell>
        <mxCell id="1530" value="" style="shape=component;jettyWidth=8;jettyHeight=4;" parent="1529" vertex="1">
          <mxGeometry x="1" width="21" height="20" relative="1" as="geometry">
            <mxPoint x="-28" y="3" as="offset" />
          </mxGeometry>
        </mxCell>
        <mxCell id="1531" value="&lt;span&gt;«&lt;/span&gt;&lt;span&gt;microservice&lt;/span&gt;&lt;span&gt;»&lt;/span&gt;&lt;br&gt;&lt;b&gt;cu-movimientos&lt;/b&gt;&lt;br&gt;" style="html=1;" parent="1" vertex="1">
          <mxGeometry x="1763.5" y="729" width="240" height="34" as="geometry" />
        </mxCell>
        <mxCell id="1532" value="" style="shape=component;jettyWidth=8;jettyHeight=4;" parent="1531" vertex="1">
          <mxGeometry x="1" width="21" height="20" relative="1" as="geometry">
            <mxPoint x="-28" y="3" as="offset" />
          </mxGeometry>
        </mxCell>
        <mxCell id="1533" value="&lt;span&gt;«&lt;/span&gt;&lt;span&gt;microservice&lt;/span&gt;&lt;span&gt;»&lt;/span&gt;&lt;br&gt;&lt;b&gt;cu-proceso-refinanciamiento&lt;/b&gt;&lt;br&gt;" style="html=1;" parent="1" vertex="1">
          <mxGeometry x="1766" y="304" width="240" height="30" as="geometry" />
        </mxCell>
        <mxCell id="1534" value="" style="shape=component;jettyWidth=8;jettyHeight=4;" parent="1533" vertex="1">
          <mxGeometry x="1" width="21" height="20" relative="1" as="geometry">
            <mxPoint x="-28" y="3" as="offset" />
          </mxGeometry>
        </mxCell>
        <mxCell id="1535" value="&lt;span&gt;«&lt;/span&gt;&lt;span&gt;microservice&lt;/span&gt;&lt;span&gt;»&lt;/span&gt;&lt;br&gt;&lt;b&gt;cu-proceso-cobranza-&lt;br&gt;onerosa&lt;/b&gt;&lt;br&gt;" style="html=1;" parent="1" vertex="1">
          <mxGeometry x="2016" y="200" width="240" height="41" as="geometry" />
        </mxCell>
        <mxCell id="1536" value="" style="shape=component;jettyWidth=8;jettyHeight=4;" parent="1535" vertex="1">
          <mxGeometry x="1" width="21" height="20" relative="1" as="geometry">
            <mxPoint x="-28" y="3" as="offset" />
          </mxGeometry>
        </mxCell>
        <mxCell id="1537" value="&lt;span&gt;«&lt;/span&gt;&lt;span&gt;microservice&lt;/span&gt;&lt;span&gt;»&lt;/span&gt;&lt;br&gt;&lt;b&gt;cu-proceso-veredicto-&lt;br&gt;rectificatoria&lt;/b&gt;&lt;br&gt;" style="html=1;" parent="1" vertex="1">
          <mxGeometry x="2016" y="300" width="240" height="43" as="geometry" />
        </mxCell>
        <mxCell id="1538" value="" style="shape=component;jettyWidth=8;jettyHeight=4;" parent="1537" vertex="1">
          <mxGeometry x="1" width="21" height="20" relative="1" as="geometry">
            <mxPoint x="-28" y="3" as="offset" />
          </mxGeometry>
        </mxCell>
        <mxCell id="1539" value="&lt;span&gt;«&lt;/span&gt;&lt;span&gt;microservice&lt;/span&gt;&lt;span&gt;»&lt;/span&gt;&lt;br&gt;&lt;b&gt;cu-proceso-devoluciones&lt;/b&gt;&lt;br&gt;" style="html=1;" parent="1" vertex="1">
          <mxGeometry x="2016" y="258.5" width="240" height="31.5" as="geometry" />
        </mxCell>
        <mxCell id="1540" value="" style="shape=component;jettyWidth=8;jettyHeight=4;" parent="1539" vertex="1">
          <mxGeometry x="1" width="21" height="20" relative="1" as="geometry">
            <mxPoint x="-28" y="3" as="offset" />
          </mxGeometry>
        </mxCell>
        <mxCell id="1541" value="&lt;span&gt;«&lt;/span&gt;&lt;span&gt;microservice&lt;/span&gt;&lt;span&gt;»&lt;/span&gt;&lt;br&gt;&lt;b&gt;cu-motor-calculo-dn&lt;/b&gt;&lt;br&gt;" style="html=1;" parent="1" vertex="1">
          <mxGeometry x="2012" y="621.5" width="240" height="30" as="geometry" />
        </mxCell>
        <mxCell id="1542" value="" style="shape=component;jettyWidth=8;jettyHeight=4;" parent="1541" vertex="1">
          <mxGeometry x="1" width="21" height="20" relative="1" as="geometry">
            <mxPoint x="-28" y="3" as="offset" />
          </mxGeometry>
        </mxCell>
        <mxCell id="1543" value="&lt;span&gt;«&lt;/span&gt;&lt;span&gt;microservice&lt;/span&gt;&lt;span&gt;»&lt;/span&gt;&lt;br&gt;&lt;b&gt;cu-motor-&lt;/b&gt;&lt;b&gt;configuracion&lt;/b&gt;&lt;br&gt;" style="html=1;" parent="1" vertex="1">
          <mxGeometry x="1763.5" y="657.5" width="240" height="30" as="geometry" />
        </mxCell>
        <mxCell id="1544" value="" style="shape=component;jettyWidth=8;jettyHeight=4;" parent="1543" vertex="1">
          <mxGeometry x="1" width="21" height="20" relative="1" as="geometry">
            <mxPoint x="-28" y="3" as="offset" />
          </mxGeometry>
        </mxCell>
        <mxCell id="1545" value="&lt;span&gt;«&lt;/span&gt;&lt;span&gt;microservice&lt;/span&gt;&lt;span&gt;»&lt;/span&gt;&lt;br&gt;&lt;b&gt;cu-proceso-cobranza-&lt;br&gt;coactiva&lt;/b&gt;&lt;br&gt;" style="html=1;" parent="1" vertex="1">
          <mxGeometry x="1456" y="741" width="240" height="41" as="geometry" />
        </mxCell>
        <mxCell id="1546" value="" style="shape=component;jettyWidth=8;jettyHeight=4;" parent="1545" vertex="1">
          <mxGeometry x="1" width="21" height="20" relative="1" as="geometry">
            <mxPoint x="-28" y="3" as="offset" />
          </mxGeometry>
        </mxCell>
        <mxCell id="1547" value="&lt;span&gt;«&lt;/span&gt;&lt;span&gt;microservice&lt;/span&gt;&lt;span&gt;»&lt;/span&gt;&lt;br&gt;&lt;b&gt;cu-proceso-correcion-&lt;br&gt;errores-cuenta&lt;/b&gt;&lt;br&gt;" style="html=1;" parent="1" vertex="1">
          <mxGeometry x="1456" y="791" width="240" height="43" as="geometry" />
        </mxCell>
        <mxCell id="1548" value="" style="shape=component;jettyWidth=8;jettyHeight=4;" parent="1547" vertex="1">
          <mxGeometry x="1" width="21" height="20" relative="1" as="geometry">
            <mxPoint x="-28" y="3" as="offset" />
          </mxGeometry>
        </mxCell>
        <mxCell id="1551" value="&lt;span&gt;«&lt;/span&gt;&lt;span&gt;microservice&lt;/span&gt;&lt;span&gt;»&lt;/span&gt;&lt;br&gt;&lt;b&gt;cu-procesos-solicitud&lt;/b&gt;&lt;br&gt;" style="html=1;" parent="1" vertex="1">
          <mxGeometry x="1772" y="888.5" width="240" height="30" as="geometry" />
        </mxCell>
        <mxCell id="1552" value="" style="shape=component;jettyWidth=8;jettyHeight=4;" parent="1551" vertex="1">
          <mxGeometry x="1" width="21" height="20" relative="1" as="geometry">
            <mxPoint x="-28" y="3" as="offset" />
          </mxGeometry>
        </mxCell>
        <mxCell id="1553" value="&lt;span&gt;«&lt;/span&gt;&lt;span&gt;microservice&lt;/span&gt;&lt;span&gt;»&lt;/span&gt;&lt;br&gt;&lt;b&gt;cu-proceso-ordenes-pago&amp;nbsp;&lt;/b&gt;&lt;br&gt;" style="html=1;" parent="1" vertex="1">
          <mxGeometry x="1772" y="927.5" width="240" height="36.71" as="geometry" />
        </mxCell>
        <mxCell id="1554" value="" style="shape=component;jettyWidth=8;jettyHeight=4;" parent="1553" vertex="1">
          <mxGeometry x="1" width="21" height="20" relative="1" as="geometry">
            <mxPoint x="-28" y="3" as="offset" />
          </mxGeometry>
        </mxCell>
        <mxCell id="1555" value="&lt;span&gt;«&lt;/span&gt;&lt;span&gt;microservice&lt;/span&gt;&lt;span&gt;»&lt;/span&gt;&lt;br&gt;&lt;b&gt;cu-proceso-infracciones&lt;/b&gt;&lt;br&gt;" style="html=1;" parent="1" vertex="1">
          <mxGeometry x="1761" y="424" width="240" height="30" as="geometry" />
        </mxCell>
        <mxCell id="1556" value="" style="shape=component;jettyWidth=8;jettyHeight=4;" parent="1555" vertex="1">
          <mxGeometry x="1" width="21" height="20" relative="1" as="geometry">
            <mxPoint x="-28" y="3" as="offset" />
          </mxGeometry>
        </mxCell>
        <mxCell id="1559" value="&lt;span&gt;«&lt;/span&gt;&lt;span&gt;microservice&lt;/span&gt;&lt;span&gt;»&lt;/span&gt;&lt;br&gt;&lt;b&gt;cu-proceso-documentos-&lt;br&gt;valorados&lt;/b&gt;&lt;br&gt;" style="html=1;" parent="1" vertex="1">
          <mxGeometry x="2015" y="423.33" width="240" height="40" as="geometry" />
        </mxCell>
        <mxCell id="1560" value="" style="shape=component;jettyWidth=8;jettyHeight=4;" parent="1559" vertex="1">
          <mxGeometry x="1" width="21" height="20" relative="1" as="geometry">
            <mxPoint x="-28" y="3" as="offset" />
          </mxGeometry>
        </mxCell>
        <mxCell id="1563" value="&lt;span&gt;«&lt;/span&gt;&lt;span&gt;microservice&lt;/span&gt;&lt;span&gt;»&lt;/span&gt;&lt;br&gt;&lt;b&gt;cu-proceso-liquidacion-&lt;br&gt;fiscalizacion&lt;/b&gt;&lt;br&gt;" style="html=1;" parent="1" vertex="1">
          <mxGeometry x="1761" y="462.33" width="240" height="40" as="geometry" />
        </mxCell>
        <mxCell id="1564" value="" style="shape=component;jettyWidth=8;jettyHeight=4;" parent="1563" vertex="1">
          <mxGeometry x="1" width="21" height="20" relative="1" as="geometry">
            <mxPoint x="-28" y="3" as="offset" />
          </mxGeometry>
        </mxCell>
        <mxCell id="1566" value="&lt;span&gt;«&lt;/span&gt;&lt;span&gt;microservice&lt;/span&gt;&lt;span&gt;»&lt;/span&gt;&lt;br&gt;&lt;b&gt;cu-motor-dn&lt;/b&gt;&lt;br&gt;" style="html=1;" parent="1" vertex="1">
          <mxGeometry x="1763.5" y="582" width="240" height="30" as="geometry" />
        </mxCell>
        <mxCell id="1567" value="" style="shape=component;jettyWidth=8;jettyHeight=4;" parent="1566" vertex="1">
          <mxGeometry x="1" width="21" height="20" relative="1" as="geometry">
            <mxPoint x="-28" y="3" as="offset" />
          </mxGeometry>
        </mxCell>
        <mxCell id="1574" value="&lt;span&gt;«&lt;/span&gt;&lt;span&gt;microservice&lt;/span&gt;&lt;span&gt;»&lt;/span&gt;&lt;br&gt;&lt;b&gt;cu-recepcion&lt;/b&gt;&lt;br&gt;" style="html=1;" parent="1" vertex="1">
          <mxGeometry x="2012" y="582" width="240" height="30" as="geometry" />
        </mxCell>
        <mxCell id="1575" value="" style="shape=component;jettyWidth=8;jettyHeight=4;" parent="1574" vertex="1">
          <mxGeometry x="1" width="21" height="20" relative="1" as="geometry">
            <mxPoint x="-28" y="3" as="offset" />
          </mxGeometry>
        </mxCell>
        <mxCell id="1576" value="&lt;span&gt;«&lt;/span&gt;&lt;span&gt;microservice&lt;/span&gt;&lt;span&gt;»&lt;/span&gt;&lt;br&gt;&lt;b&gt;cu-proceso-compensacion-creditos&lt;/b&gt;" style="html=1;" parent="1" vertex="1">
          <mxGeometry x="1456" y="230.83" width="240" height="31.17" as="geometry" />
        </mxCell>
        <mxCell id="1577" value="" style="shape=component;jettyWidth=8;jettyHeight=4;" parent="1576" vertex="1">
          <mxGeometry x="1" width="21" height="20" relative="1" as="geometry">
            <mxPoint x="-28" y="3" as="offset" />
          </mxGeometry>
        </mxCell>
        <mxCell id="1578" value="&lt;span&gt;«&lt;/span&gt;&lt;span&gt;microservice&lt;/span&gt;&lt;span&gt;»&lt;/span&gt;&lt;br&gt;&lt;b&gt;cu-proceso-error-material&lt;/b&gt;" style="html=1;" parent="1" vertex="1">
          <mxGeometry x="1456" y="190" width="240" height="32" as="geometry" />
        </mxCell>
        <mxCell id="1579" value="" style="shape=component;jettyWidth=8;jettyHeight=4;" parent="1578" vertex="1">
          <mxGeometry x="1" width="21" height="20" relative="1" as="geometry">
            <mxPoint x="-28" y="3" as="offset" />
          </mxGeometry>
        </mxCell>
        <mxCell id="1580" value="&lt;span&gt;«&lt;/span&gt;&lt;span&gt;microservice&lt;/span&gt;&lt;span&gt;»&lt;/span&gt;&lt;br&gt;&lt;b&gt;cu-proceso-&lt;br&gt;modificacion-datos&lt;/b&gt;&lt;br&gt;" style="html=1;" parent="1" vertex="1">
          <mxGeometry x="1456" y="645" width="240" height="43" as="geometry" />
        </mxCell>
        <mxCell id="1581" value="" style="shape=component;jettyWidth=8;jettyHeight=4;" parent="1580" vertex="1">
          <mxGeometry x="1" width="21" height="20" relative="1" as="geometry">
            <mxPoint x="-28" y="3" as="offset" />
          </mxGeometry>
        </mxCell>
        <mxCell id="1583" value="«database»&lt;br&gt;&lt;b&gt;db-motor-configuracion&lt;/b&gt;&lt;br&gt;" style="html=1;labelBackgroundColor=none;strokeColor=#000000;fontSize=9;fontColor=#000000;align=center;aspect=fixed;" parent="1" vertex="1">
          <mxGeometry x="1110.621052631579" y="1527.0757077625572" width="160" height="35" as="geometry" />
        </mxCell>
        <mxCell id="1584" value="«database»&lt;br&gt;&lt;b&gt;db-movimientos&lt;/b&gt;&lt;br&gt;" style="html=1;labelBackgroundColor=none;strokeColor=#000000;fontSize=9;fontColor=#000000;align=center;aspect=fixed;" parent="1" vertex="1">
          <mxGeometry x="1288.0578947368426" y="1479.586210045662" width="160" height="35" as="geometry" />
        </mxCell>
        <mxCell id="1585" value="«database»&lt;br&gt;&lt;b&gt;db-recepcion&lt;/b&gt;&lt;br&gt;" style="html=1;labelBackgroundColor=none;strokeColor=#000000;fontSize=9;fontColor=#000000;align=center;aspect=fixed;" parent="1" vertex="1">
          <mxGeometry x="1108.0697174922598" y="1425.8711415525113" width="160" height="35" as="geometry" />
        </mxCell>
        <mxCell id="1586" value="«database»&lt;br&gt;&lt;b&gt;db-proceso-ajustes-cuenta-unica&lt;/b&gt;&lt;br&gt;" style="html=1;labelBackgroundColor=none;strokeColor=#000000;fontSize=9;fontColor=#000000;align=center;aspect=fixed;" parent="1" vertex="1">
          <mxGeometry x="1290.057894736842" y="1634.267488584475" width="160" height="35" as="geometry" />
        </mxCell>
        <mxCell id="1587" value="«database»&lt;br&gt;&lt;b&gt;db-proceso-correcion-&lt;br&gt;errores-cuenta&lt;/b&gt;&lt;br&gt;" style="html=1;labelBackgroundColor=none;strokeColor=#000000;fontSize=9;fontColor=#000000;align=center;aspect=fixed;" parent="1" vertex="1">
          <mxGeometry x="1288.121052631579" y="1527.92" width="160" height="35" as="geometry" />
        </mxCell>
        <mxCell id="1588" value="«database»&lt;br&gt;&lt;b&gt;db-proceso-error-material&lt;/b&gt;&lt;br&gt;" style="html=1;labelBackgroundColor=none;strokeColor=#000000;fontSize=9;fontColor=#000000;align=center;aspect=fixed;" parent="1" vertex="1">
          <mxGeometry x="1647.121052631579" y="1475.8711415525113" width="160" height="35" as="geometry" />
        </mxCell>
        <mxCell id="1589" value="«database»&lt;br&gt;&lt;b&gt;db-proceso-fraccionamiento&lt;/b&gt;&lt;br&gt;" style="html=1;labelBackgroundColor=none;strokeColor=#000000;fontSize=9;fontColor=#000000;align=center;aspect=fixed;" parent="1" vertex="1">
          <mxGeometry x="1823.0578947368422" y="1474.42" width="160" height="35" as="geometry" />
        </mxCell>
        <mxCell id="1590" value="«database»&lt;br&gt;&lt;b&gt;db-proceso-reestruturacion-&lt;br&gt;reorganizacion&lt;/b&gt;&lt;br&gt;" style="html=1;labelBackgroundColor=none;strokeColor=#000000;fontSize=9;fontColor=#000000;align=center;aspect=fixed;" parent="1" vertex="1">
          <mxGeometry x="1824.0578947368417" y="1529.92" width="160" height="35" as="geometry" />
        </mxCell>
        <mxCell id="1591" value="«database»&lt;br&gt;&lt;b&gt;db-procesos-solicitud&lt;/b&gt;&lt;br&gt;" style="html=1;labelBackgroundColor=none;strokeColor=#000000;fontSize=9;fontColor=#000000;align=center;aspect=fixed;" parent="1" vertex="1">
          <mxGeometry x="1645.5578947368422" y="1420.8711415525113" width="160" height="35" as="geometry" />
        </mxCell>
        <mxCell id="1592" value="«database»&lt;br&gt;&lt;b&gt;db-proceso-suspension&lt;/b&gt;&lt;br&gt;" style="html=1;labelBackgroundColor=none;strokeColor=#000000;fontSize=9;fontColor=#000000;align=center;aspect=fixed;" parent="1" vertex="1">
          <mxGeometry x="1643.5578947368422" y="1634.267488584475" width="160" height="35" as="geometry" />
        </mxCell>
        <mxCell id="1593" value="«database»&lt;br&gt;&lt;b&gt;db-proceso-compensacion-&lt;br&gt;creditos&lt;/b&gt;&lt;br&gt;" style="html=1;labelBackgroundColor=none;strokeColor=#000000;fontSize=9;fontColor=#000000;align=center;aspect=fixed;" parent="1" vertex="1">
          <mxGeometry x="1646.0697174922598" y="1529.8944292237443" width="160" height="35" as="geometry" />
        </mxCell>
        <mxCell id="1594" value="«database»&lt;br&gt;&lt;b&gt;db-proceso-incumplimiento-&lt;br&gt;entidades-estado&lt;/b&gt;&lt;br&gt;" style="html=1;labelBackgroundColor=none;strokeColor=#000000;fontSize=9;fontColor=#000000;align=center;aspect=fixed;" parent="1" vertex="1">
          <mxGeometry x="1821.121052631579" y="1420.7752511415524" width="160" height="35" as="geometry" />
        </mxCell>
        <mxCell id="1595" value="«database»&lt;br&gt;&lt;b&gt;db-proceso-infracciones&lt;/b&gt;&lt;br&gt;" style="html=1;labelBackgroundColor=none;strokeColor=#000000;fontSize=9;fontColor=#000000;align=center;aspect=fixed;" parent="1" vertex="1">
          <mxGeometry x="1470.0578947368424" y="1527.92" width="160" height="35" as="geometry" />
        </mxCell>
        <mxCell id="1596" value="«database»&lt;br&gt;&lt;b&gt;db-proceso-liquidacion-&lt;br&gt;fiscalizacion&lt;/b&gt;&lt;br&gt;" style="html=1;labelBackgroundColor=none;strokeColor=#000000;fontSize=9;fontColor=#000000;align=center;aspect=fixed;" parent="1" vertex="1">
          <mxGeometry x="1470.0578947368422" y="1420.7752511415524" width="160" height="35" as="geometry" />
        </mxCell>
        <mxCell id="1597" value="«database»&lt;br&gt;&lt;b&gt;db-proceso-comunicacion-&lt;br&gt;diferencias-cuenta&lt;/b&gt;&lt;br&gt;" style="html=1;labelBackgroundColor=none;strokeColor=#000000;fontSize=9;fontColor=#000000;align=center;aspect=fixed;" parent="1" vertex="1">
          <mxGeometry x="1288.0578947368422" y="1579.92" width="160" height="35" as="geometry" />
        </mxCell>
        <mxCell id="1599" value="«database»&lt;br&gt;&lt;b&gt;db-proceso-recursos-&lt;br&gt;impugnatorios&lt;/b&gt;&lt;br&gt;" style="html=1;labelBackgroundColor=none;strokeColor=#000000;fontSize=9;fontColor=#000000;align=center;aspect=fixed;" parent="1" vertex="1">
          <mxGeometry x="1471.621052631579" y="1475.9670319634706" width="160" height="35" as="geometry" />
        </mxCell>
        <mxCell id="1600" value="«database»&lt;br&gt;&lt;b&gt;db-proceso-devoluciones&lt;/b&gt;&lt;br&gt;" style="html=1;labelBackgroundColor=none;strokeColor=#000000;fontSize=9;fontColor=#000000;align=center;aspect=fixed;" parent="1" vertex="1">
          <mxGeometry x="1470.0578947368424" y="1579.92" width="160" height="35" as="geometry" />
        </mxCell>
        <mxCell id="1601" value="«database»&lt;br&gt;&lt;b&gt;db-proceso-refinanciamiento&lt;/b&gt;&lt;br&gt;" style="html=1;labelBackgroundColor=none;strokeColor=#000000;fontSize=9;fontColor=#000000;align=center;aspect=fixed;" parent="1" vertex="1">
          <mxGeometry x="1470.121052631579" y="1634.2752511415524" width="160" height="35" as="geometry" />
        </mxCell>
        <mxCell id="1666" value="&lt;span&gt;«&lt;/span&gt;&lt;span&gt;microservice&lt;/span&gt;&lt;span&gt;»&lt;/span&gt;&lt;br&gt;&lt;b&gt;cu-proceso-parametros-sistema&lt;/b&gt;&lt;br&gt;" style="html=1;" parent="1" vertex="1">
          <mxGeometry x="1763.5" y="692.9" width="240" height="31" as="geometry" />
        </mxCell>
        <mxCell id="1667" value="" style="shape=component;jettyWidth=8;jettyHeight=4;" parent="1666" vertex="1">
          <mxGeometry x="1" width="21" height="20" relative="1" as="geometry">
            <mxPoint x="-28" y="3" as="offset" />
          </mxGeometry>
        </mxCell>
        <mxCell id="1668" value="&lt;span&gt;«&lt;/span&gt;&lt;span&gt;microservice&lt;/span&gt;&lt;span&gt;»&lt;/span&gt;&lt;br&gt;&lt;b&gt;cu-proceso-&lt;br&gt;modificacion-datos&lt;/b&gt;&lt;br&gt;" style="html=1;" parent="1" vertex="1">
          <mxGeometry x="1456" y="693.79" width="240" height="43" as="geometry" />
        </mxCell>
        <mxCell id="1669" value="" style="shape=component;jettyWidth=8;jettyHeight=4;" parent="1668" vertex="1">
          <mxGeometry x="1" width="21" height="20" relative="1" as="geometry">
            <mxPoint x="-28" y="3" as="offset" />
          </mxGeometry>
        </mxCell>
        <mxCell id="1671" value="«database»&lt;br&gt;&lt;span&gt;&lt;b&gt;db-proceso-parametros-sistema&lt;/b&gt;&lt;/span&gt;&lt;br&gt;" style="html=1;labelBackgroundColor=none;strokeColor=#000000;fontSize=9;fontColor=#000000;align=center;aspect=fixed;" parent="1" vertex="1">
          <mxGeometry x="1109.0578947368426" y="1479.586210045662" width="160" height="35" as="geometry" />
        </mxCell>
        <mxCell id="1672" value="«database»&lt;br&gt;&lt;span&gt;&lt;b&gt;db-proceso-ordenes-pago&lt;/b&gt;&lt;/span&gt;&lt;br&gt;" style="html=1;labelBackgroundColor=none;strokeColor=#000000;fontSize=9;fontColor=#000000;align=center;aspect=fixed;" parent="1" vertex="1">
          <mxGeometry x="1645.5578947368426" y="1582.086210045662" width="160" height="35" as="geometry" />
        </mxCell>
        <mxCell id="JtlGco21lhC-UBTadS4h-1705" value="" style="group" parent="1" vertex="1" connectable="0">
          <mxGeometry x="2747" y="95" width="205" height="100" as="geometry" />
        </mxCell>
        <mxCell id="631" value="&lt;b&gt;&amp;lt;&amp;lt;Device&amp;gt;&amp;gt;&lt;/b&gt;&lt;br&gt;RHEL" style="verticalAlign=top;align=center;spacingTop=8;spacingLeft=2;spacingRight=12;shape=cube;size=10;direction=south;fontStyle=4;html=1;" parent="JtlGco21lhC-UBTadS4h-1705" vertex="1">
          <mxGeometry width="205" height="100" as="geometry" />
        </mxCell>
        <mxCell id="632" value="&lt;b&gt;&amp;lt;&amp;lt;Artifact&amp;gt;&amp;gt;&lt;/b&gt;&lt;br&gt;Kafka&lt;br&gt;" style="html=1;" parent="JtlGco21lhC-UBTadS4h-1705" vertex="1">
          <mxGeometry x="18.5003662109375" y="55.99995422363281" width="164" height="30" as="geometry" />
        </mxCell>
        <mxCell id="633" value="" style="shape=component;jettyWidth=8;jettyHeight=4;" parent="632" vertex="1">
          <mxGeometry x="1" width="20" height="20" relative="1" as="geometry">
            <mxPoint x="-27" y="7" as="offset" />
          </mxGeometry>
        </mxCell>
        <mxCell id="3588effd44935446-1112" value="&lt;b&gt;DTAKA01&lt;/b&gt;" style="text;html=1;strokeColor=none;fillColor=none;align=center;verticalAlign=middle;whiteSpace=wrap;rounded=0;dashed=1;" parent="JtlGco21lhC-UBTadS4h-1705" vertex="1">
          <mxGeometry x="143.5" y="11" width="45" height="20" as="geometry" />
        </mxCell>
        <mxCell id="JtlGco21lhC-UBTadS4h-1706" value="" style="group" parent="1" vertex="1" connectable="0">
          <mxGeometry x="2957.5003662109375" y="94.99995422363281" width="205" height="100" as="geometry" />
        </mxCell>
        <mxCell id="874" value="&lt;b&gt;&amp;lt;&amp;lt;Device&amp;gt;&amp;gt;&lt;/b&gt;&lt;br&gt;:RHEL" style="verticalAlign=top;align=center;spacingTop=8;spacingLeft=2;spacingRight=12;shape=cube;size=10;direction=south;fontStyle=4;html=1;" parent="JtlGco21lhC-UBTadS4h-1706" vertex="1">
          <mxGeometry width="205" height="100" as="geometry" />
        </mxCell>
        <mxCell id="875" value="&lt;b&gt;&amp;lt;&amp;lt;Artifact&amp;gt;&amp;gt;&lt;/b&gt;&lt;br&gt;Kafka&lt;br&gt;" style="html=1;" parent="JtlGco21lhC-UBTadS4h-1706" vertex="1">
          <mxGeometry x="11.9996337890625" y="56.50004577636719" width="164" height="30" as="geometry" />
        </mxCell>
        <mxCell id="876" value="" style="shape=component;jettyWidth=8;jettyHeight=4;" parent="875" vertex="1">
          <mxGeometry x="1" width="20" height="20" relative="1" as="geometry">
            <mxPoint x="-27" y="7" as="offset" />
          </mxGeometry>
        </mxCell>
        <mxCell id="3588effd44935446-1113" value="&lt;b&gt;DTAKA03&lt;/b&gt;" style="text;html=1;strokeColor=none;fillColor=none;align=center;verticalAlign=middle;whiteSpace=wrap;rounded=0;dashed=1;" parent="JtlGco21lhC-UBTadS4h-1706" vertex="1">
          <mxGeometry x="143.4996337890625" y="10.000045776367188" width="45" height="20" as="geometry" />
        </mxCell>
        <mxCell id="JtlGco21lhC-UBTadS4h-1707" value="" style="group" parent="1" vertex="1" connectable="0">
          <mxGeometry x="3168.5" y="94" width="205" height="100" as="geometry" />
        </mxCell>
        <mxCell id="871" value="&lt;b&gt;&amp;lt;&amp;lt;Device&amp;gt;&amp;gt;&lt;/b&gt;&lt;br&gt;:RHEL" style="verticalAlign=top;align=center;spacingTop=8;spacingLeft=2;spacingRight=12;shape=cube;size=10;direction=south;fontStyle=4;html=1;" parent="JtlGco21lhC-UBTadS4h-1707" vertex="1">
          <mxGeometry width="205" height="100" as="geometry" />
        </mxCell>
        <mxCell id="872" value="&lt;b&gt;&amp;lt;&amp;lt;Artifact&amp;gt;&amp;gt;&lt;/b&gt;&lt;br&gt;Kafka&lt;br&gt;" style="html=1;" parent="JtlGco21lhC-UBTadS4h-1707" vertex="1">
          <mxGeometry x="17.0003662109375" y="54.99995422363281" width="164" height="30" as="geometry" />
        </mxCell>
        <mxCell id="873" value="" style="shape=component;jettyWidth=8;jettyHeight=4;" parent="872" vertex="1">
          <mxGeometry x="1" width="20" height="20" relative="1" as="geometry">
            <mxPoint x="-27" y="7" as="offset" />
          </mxGeometry>
        </mxCell>
        <mxCell id="1079" value="&lt;b&gt;DTAKA02&lt;br&gt;&lt;/b&gt;" style="text;html=1;strokeColor=none;fillColor=none;align=center;verticalAlign=middle;whiteSpace=wrap;rounded=0;dashed=1;" parent="JtlGco21lhC-UBTadS4h-1707" vertex="1">
          <mxGeometry x="144" y="13" width="45" height="20" as="geometry" />
        </mxCell>
        <mxCell id="JtlGco21lhC-UBTadS4h-1708" value="" style="group" parent="1" vertex="1" connectable="0">
          <mxGeometry x="2450" y="624" width="250" height="100" as="geometry" />
        </mxCell>
        <mxCell id="488" value="&lt;b&gt;&amp;lt;&amp;lt;Device&amp;gt;&amp;gt;&lt;/b&gt;&lt;br&gt;:RHEL" style="verticalAlign=top;align=center;spacingTop=8;spacingLeft=2;spacingRight=12;shape=cube;size=10;direction=south;fontStyle=4;html=1;" parent="JtlGco21lhC-UBTadS4h-1708" vertex="1">
          <mxGeometry width="250" height="100" as="geometry" />
        </mxCell>
        <mxCell id="490" value="&lt;b&gt;&amp;lt;&amp;lt;Artifact&amp;gt;&amp;gt;&lt;/b&gt;&lt;br&gt;Consul API Rest&lt;br&gt;" style="html=1;" parent="JtlGco21lhC-UBTadS4h-1708" vertex="1">
          <mxGeometry x="19" y="54.99995422363281" width="199" height="30" as="geometry" />
        </mxCell>
        <mxCell id="491" value="" style="shape=component;jettyWidth=8;jettyHeight=4;" parent="490" vertex="1">
          <mxGeometry x="1" width="20" height="20" relative="1" as="geometry">
            <mxPoint x="-27" y="7" as="offset" />
          </mxGeometry>
        </mxCell>
        <mxCell id="1086" value="&lt;b&gt;CONRE01&lt;/b&gt;" style="text;html=1;strokeColor=none;fillColor=none;align=center;verticalAlign=middle;whiteSpace=wrap;rounded=0;dashed=1;" parent="JtlGco21lhC-UBTadS4h-1708" vertex="1">
          <mxGeometry x="187" y="15" width="45" height="20" as="geometry" />
        </mxCell>
        <mxCell id="JtlGco21lhC-UBTadS4h-1712" value="" style="group" parent="1" vertex="1" connectable="0">
          <mxGeometry x="2450" y="732.5" width="250" height="100" as="geometry" />
        </mxCell>
        <mxCell id="1124" value="&lt;b&gt;&amp;lt;&amp;lt;Device&amp;gt;&amp;gt;&lt;/b&gt;&lt;br&gt;:RHEL" style="verticalAlign=top;align=center;spacingTop=8;spacingLeft=2;spacingRight=12;shape=cube;size=10;direction=south;fontStyle=4;html=1;" parent="JtlGco21lhC-UBTadS4h-1712" vertex="1">
          <mxGeometry width="250" height="100" as="geometry" />
        </mxCell>
        <mxCell id="1125" value="&lt;b&gt;&amp;lt;&amp;lt;Artifact&amp;gt;&amp;gt;&lt;/b&gt;&lt;br&gt;Consul API Rest&lt;br&gt;" style="html=1;" parent="JtlGco21lhC-UBTadS4h-1712" vertex="1">
          <mxGeometry x="20" y="56.99995422363281" width="199" height="30" as="geometry" />
        </mxCell>
        <mxCell id="1126" value="" style="shape=component;jettyWidth=8;jettyHeight=4;" parent="1125" vertex="1">
          <mxGeometry x="1" width="20" height="20" relative="1" as="geometry">
            <mxPoint x="-27" y="7" as="offset" />
          </mxGeometry>
        </mxCell>
        <mxCell id="1144" value="&lt;b&gt;CONRE02&lt;/b&gt;" style="text;html=1;strokeColor=none;fillColor=none;align=center;verticalAlign=middle;whiteSpace=wrap;rounded=0;dashed=1;" parent="JtlGco21lhC-UBTadS4h-1712" vertex="1">
          <mxGeometry x="186.5" y="18" width="45" height="20" as="geometry" />
        </mxCell>
        <mxCell id="JtlGco21lhC-UBTadS4h-1713" value="" style="group" parent="1" vertex="1" connectable="0">
          <mxGeometry x="2450.5" y="841.5" width="250" height="100" as="geometry" />
        </mxCell>
        <mxCell id="1127" value="&lt;b&gt;&amp;lt;&amp;lt;Device&amp;gt;&amp;gt;&lt;/b&gt;&lt;br&gt;:RHEL" style="verticalAlign=top;align=center;spacingTop=8;spacingLeft=2;spacingRight=12;shape=cube;size=10;direction=south;fontStyle=4;html=1;" parent="JtlGco21lhC-UBTadS4h-1713" vertex="1">
          <mxGeometry width="250" height="100" as="geometry" />
        </mxCell>
        <mxCell id="1128" value="&lt;b&gt;&amp;lt;&amp;lt;Artifact&amp;gt;&amp;gt;&lt;/b&gt;&lt;br&gt;Consul API Rest&lt;br&gt;" style="html=1;" parent="JtlGco21lhC-UBTadS4h-1713" vertex="1">
          <mxGeometry x="20" y="55.49995422363281" width="199" height="30" as="geometry" />
        </mxCell>
        <mxCell id="1129" value="" style="shape=component;jettyWidth=8;jettyHeight=4;" parent="1128" vertex="1">
          <mxGeometry x="1" width="20" height="20" relative="1" as="geometry">
            <mxPoint x="-27" y="7" as="offset" />
          </mxGeometry>
        </mxCell>
        <mxCell id="1145" value="&lt;b&gt;CONRE03&lt;/b&gt;" style="text;html=1;strokeColor=none;fillColor=none;align=center;verticalAlign=middle;whiteSpace=wrap;rounded=0;dashed=1;" parent="JtlGco21lhC-UBTadS4h-1713" vertex="1">
          <mxGeometry x="186.5" y="17.5" width="45" height="20" as="geometry" />
        </mxCell>
        <mxCell id="JtlGco21lhC-UBTadS4h-1715" value="" style="group" parent="1" vertex="1" connectable="0">
          <mxGeometry x="2430" y="990" width="239" height="112" as="geometry" />
        </mxCell>
        <mxCell id="957" value="&lt;b&gt;&amp;lt;&amp;lt;Device&amp;gt;&amp;gt;&lt;/b&gt;&lt;br&gt;:Cache/Ubuntu Server&lt;br&gt;" style="verticalAlign=top;align=center;spacingTop=8;spacingLeft=2;spacingRight=12;shape=cube;size=10;direction=south;fontStyle=4;html=1;" parent="JtlGco21lhC-UBTadS4h-1715" vertex="1">
          <mxGeometry width="239" height="112" as="geometry" />
        </mxCell>
        <mxCell id="958" value="&lt;b&gt;&amp;lt;&amp;lt;Artifact&amp;gt;&amp;gt;&lt;/b&gt;&lt;br&gt;Redis&lt;br&gt;" style="html=1;" parent="JtlGco21lhC-UBTadS4h-1715" vertex="1">
          <mxGeometry x="15" y="57.99995422363281" width="199" height="30" as="geometry" />
        </mxCell>
        <mxCell id="959" value="" style="shape=component;jettyWidth=8;jettyHeight=4;" parent="958" vertex="1">
          <mxGeometry x="1" width="20" height="20" relative="1" as="geometry">
            <mxPoint x="-27" y="7" as="offset" />
          </mxGeometry>
        </mxCell>
        <mxCell id="1087" value="&lt;b&gt;REDVM01&lt;/b&gt;" style="text;html=1;strokeColor=none;fillColor=none;align=center;verticalAlign=middle;whiteSpace=wrap;rounded=0;dashed=1;" parent="JtlGco21lhC-UBTadS4h-1715" vertex="1">
          <mxGeometry x="176.5" y="11" width="45" height="20" as="geometry" />
        </mxCell>
        <mxCell id="Cuck0bw_ZH0Q4f2Jib7o-1686" value="&lt;b&gt;&amp;lt;&amp;lt;Kubernetes&amp;gt;&amp;gt;&lt;/b&gt;&lt;br&gt;:LoadBalancer&lt;br&gt;" style="verticalAlign=top;align=center;spacingTop=8;spacingLeft=2;spacingRight=12;shape=cube;size=10;direction=south;fontStyle=4;html=1;" parent="1" vertex="1">
          <mxGeometry x="1060" y="842.29" width="220.5" height="111" as="geometry" />
        </mxCell>
        <mxCell id="Cuck0bw_ZH0Q4f2Jib7o-1687" value="&lt;b&gt;K8SLD03&lt;/b&gt;" style="text;html=1;strokeColor=none;fillColor=none;align=center;verticalAlign=middle;whiteSpace=wrap;rounded=0;dashed=1;" parent="1" vertex="1">
          <mxGeometry x="1213.5" y="851.5" width="60" height="20" as="geometry" />
        </mxCell>
        <mxCell id="Cuck0bw_ZH0Q4f2Jib7o-1688" value="&lt;b&gt;&amp;lt;&amp;lt;Artifact&amp;gt;&amp;gt;&lt;/b&gt;&lt;br&gt;LoadBalancer Nodes" style="html=1;" parent="1" vertex="1">
          <mxGeometry x="1089" y="898" width="162.5" height="29" as="geometry" />
        </mxCell>
        <mxCell id="Cuck0bw_ZH0Q4f2Jib7o-1689" value="" style="shape=component;jettyWidth=8;jettyHeight=4;" parent="Cuck0bw_ZH0Q4f2Jib7o-1688" vertex="1">
          <mxGeometry x="1" width="21" height="20" relative="1" as="geometry">
            <mxPoint x="-28" y="7" as="offset" />
          </mxGeometry>
        </mxCell>
        <mxCell id="Cuck0bw_ZH0Q4f2Jib7o-1690" value="&lt;b&gt;K8SWK05&lt;/b&gt;" style="text;html=1;strokeColor=none;fillColor=none;align=center;verticalAlign=middle;whiteSpace=wrap;rounded=0;dashed=1;" parent="1" vertex="1">
          <mxGeometry x="2198" y="548.5" width="60" height="14" as="geometry" />
        </mxCell>
        <mxCell id="Cuck0bw_ZH0Q4f2Jib7o-1691" value="&lt;b&gt;K8SWK06&lt;/b&gt;" style="text;html=1;strokeColor=none;fillColor=none;align=center;verticalAlign=middle;whiteSpace=wrap;rounded=0;dashed=1;" parent="1" vertex="1">
          <mxGeometry x="2197" y="564" width="60" height="7.5" as="geometry" />
        </mxCell>
        <mxCell id="1549" value="&lt;span&gt;«&lt;/span&gt;&lt;span&gt;microservice&lt;/span&gt;&lt;span&gt;»&lt;/span&gt;&lt;br&gt;&lt;b&gt;cu-proceso-&lt;br&gt;recursos-impugnatorios&lt;/b&gt;&lt;br&gt;" style="html=1;" parent="1" vertex="1">
          <mxGeometry x="1772" y="830.5" width="240" height="46" as="geometry" />
        </mxCell>
        <mxCell id="1550" value="" style="shape=component;jettyWidth=8;jettyHeight=4;" parent="1549" vertex="1">
          <mxGeometry x="1" width="21" height="20" relative="1" as="geometry">
            <mxPoint x="-28" y="3" as="offset" />
          </mxGeometry>
        </mxCell>
        <mxCell id="Cuck0bw_ZH0Q4f2Jib7o-1696" value="&lt;b&gt;KONAP01&lt;/b&gt;" style="text;html=1;strokeColor=none;fillColor=none;align=center;verticalAlign=middle;whiteSpace=wrap;rounded=0;dashed=1;" parent="1" vertex="1">
          <mxGeometry x="1909" y="-326" width="60" height="10" as="geometry" />
        </mxCell>
        <mxCell id="Cuck0bw_ZH0Q4f2Jib7o-1697" value="&lt;b&gt;KONAP03&lt;/b&gt;" style="text;html=1;strokeColor=none;fillColor=none;align=center;verticalAlign=middle;whiteSpace=wrap;rounded=0;dashed=1;" parent="1" vertex="1">
          <mxGeometry x="2350" y="-326" width="60" height="10" as="geometry" />
        </mxCell>
        <mxCell id="Cuck0bw_ZH0Q4f2Jib7o-1698" value="&lt;b&gt;KONAP02&lt;/b&gt;" style="text;html=1;strokeColor=none;fillColor=none;align=center;verticalAlign=middle;whiteSpace=wrap;rounded=0;dashed=1;" parent="1" vertex="1">
          <mxGeometry x="2130" y="-326" width="60" height="10" as="geometry" />
        </mxCell>
        <mxCell id="Cuck0bw_ZH0Q4f2Jib7o-1699" value="" style="endArrow=classic;html=1;fontSize=11;" parent="1" target="3588effd44935446-1094" edge="1">
          <mxGeometry width="50" height="50" relative="1" as="geometry">
            <mxPoint x="2100" y="-540" as="sourcePoint" />
            <mxPoint x="2140" y="-420" as="targetPoint" />
          </mxGeometry>
        </mxCell>
        <mxCell id="Cuck0bw_ZH0Q4f2Jib7o-1700" value="&amp;lt;&amp;lt;TCP/IP: 443&amp;gt;&amp;gt;" style="text;html=1;resizable=0;points=[];align=center;verticalAlign=middle;labelBackgroundColor=#ffffff;" parent="1" vertex="1" connectable="0">
          <mxGeometry x="2149.9994117647057" y="-420.0000000000002" as="geometry">
            <mxPoint y="-1" as="offset" />
          </mxGeometry>
        </mxCell>
        <mxCell id="wb2BVSOzqEUOzFCpHDIw-1682" value="&lt;div style=&quot;text-align: center&quot;&gt;&lt;div&gt;&lt;b&gt;&amp;lt;&amp;lt;Kubernetes&amp;gt;&amp;gt;&lt;/b&gt;&lt;/div&gt;&lt;div&gt;:Worker&lt;/div&gt;&lt;/div&gt;" style="verticalAlign=top;align=center;spacingTop=8;spacingLeft=2;spacingRight=12;shape=cube;size=10;direction=south;fontStyle=4;html=1;" parent="1" vertex="1">
          <mxGeometry x="95" y="861.94" width="307" height="187.89" as="geometry" />
        </mxCell>
        <mxCell id="wb2BVSOzqEUOzFCpHDIw-1683" value="&lt;span&gt;«&lt;/span&gt;&lt;span&gt;microservice&lt;/span&gt;&lt;span&gt;»&lt;/span&gt;&lt;br&gt;&lt;b&gt;cu-aed&lt;/b&gt;" style="html=1;" parent="1" vertex="1">
          <mxGeometry x="120" y="994.33" width="240" height="43" as="geometry" />
        </mxCell>
        <mxCell id="wb2BVSOzqEUOzFCpHDIw-1684" value="" style="shape=component;jettyWidth=8;jettyHeight=4;" parent="wb2BVSOzqEUOzFCpHDIw-1683" vertex="1">
          <mxGeometry x="1" width="21" height="20" relative="1" as="geometry">
            <mxPoint x="-28" y="3" as="offset" />
          </mxGeometry>
        </mxCell>
        <mxCell id="yC3nxN7uQtdNN0qrmy86-1674" value="&lt;font size=&quot;1&quot;&gt;&lt;b style=&quot;font-size: 32px&quot;&gt;vNet01&lt;/b&gt;&lt;/font&gt;" style="text;html=1;strokeColor=none;fillColor=none;align=center;verticalAlign=middle;whiteSpace=wrap;rounded=0;dashed=1;" vertex="1" parent="1">
          <mxGeometry x="-180" y="9" width="380" height="45" as="geometry" />
        </mxCell>
        <mxCell id="yC3nxN7uQtdNN0qrmy86-1676" value="&amp;lt;&amp;lt;Device&amp;gt;&amp;gt;&lt;br&gt;:SUNATEVENTSYSTEM" style="verticalAlign=top;align=center;spacingTop=8;spacingLeft=2;spacingRight=12;shape=cube;size=10;direction=south;fontStyle=4;html=1;rounded=0;strokeColor=#0F0F0F;fillColor=none;" vertex="1" parent="1">
          <mxGeometry x="50" y="450.83" width="400" height="179" as="geometry" />
        </mxCell>
        <mxCell id="yC3nxN7uQtdNN0qrmy86-1678" value="&lt;b&gt;K8SWKINT01&lt;/b&gt;" style="text;html=1;strokeColor=none;fillColor=none;align=center;verticalAlign=middle;whiteSpace=wrap;rounded=0;dashed=1;" vertex="1" parent="1">
          <mxGeometry x="317" y="881.33" width="60" height="8.5" as="geometry" />
        </mxCell>
        <mxCell id="yC3nxN7uQtdNN0qrmy86-1679" value="&lt;b&gt;K8SWKINT02&lt;/b&gt;" style="text;html=1;strokeColor=none;fillColor=none;align=center;verticalAlign=middle;whiteSpace=wrap;rounded=0;dashed=1;" vertex="1" parent="1">
          <mxGeometry x="317" y="892.83" width="60" height="8.5" as="geometry" />
        </mxCell>
        <mxCell id="yC3nxN7uQtdNN0qrmy86-1680" value="&lt;b&gt;K8SWKINT03&lt;/b&gt;" style="text;html=1;strokeColor=none;fillColor=none;align=center;verticalAlign=middle;whiteSpace=wrap;rounded=0;dashed=1;" vertex="1" parent="1">
          <mxGeometry x="317" y="903.83" width="60" height="8.5" as="geometry" />
        </mxCell>
        <mxCell id="yC3nxN7uQtdNN0qrmy86-1681" value="&lt;b&gt;K8SWKINT04&lt;/b&gt;" style="text;html=1;strokeColor=none;fillColor=none;align=center;verticalAlign=middle;whiteSpace=wrap;rounded=0;dashed=1;" vertex="1" parent="1">
          <mxGeometry x="317" y="915.0400000000001" width="60" height="8.5" as="geometry" />
        </mxCell>
        <mxCell id="yC3nxN7uQtdNN0qrmy86-1682" value="&lt;b&gt;K8SWKINT05&lt;/b&gt;" style="text;html=1;strokeColor=none;fillColor=none;align=center;verticalAlign=middle;whiteSpace=wrap;rounded=0;dashed=1;" vertex="1" parent="1">
          <mxGeometry x="317" y="925.83" width="60" height="8.5" as="geometry" />
        </mxCell>
        <mxCell id="yC3nxN7uQtdNN0qrmy86-1683" value="&lt;b&gt;K8SWKINT06&lt;/b&gt;" style="text;html=1;strokeColor=none;fillColor=none;align=center;verticalAlign=middle;whiteSpace=wrap;rounded=0;dashed=1;" vertex="1" parent="1">
          <mxGeometry x="317" y="935.33" width="60" height="8.5" as="geometry" />
        </mxCell>
        <mxCell id="yC3nxN7uQtdNN0qrmy86-1684" value="&lt;b&gt;K8SWKINT07&lt;/b&gt;" style="text;html=1;strokeColor=none;fillColor=none;align=center;verticalAlign=middle;whiteSpace=wrap;rounded=0;dashed=1;" vertex="1" parent="1">
          <mxGeometry x="317" y="947.83" width="60" height="8.5" as="geometry" />
        </mxCell>
        <mxCell id="yC3nxN7uQtdNN0qrmy86-1685" value="&lt;b&gt;K8SWKINT08&lt;/b&gt;" style="text;html=1;strokeColor=none;fillColor=none;align=center;verticalAlign=middle;whiteSpace=wrap;rounded=0;dashed=1;" vertex="1" parent="1">
          <mxGeometry x="317" y="959.33" width="60" height="8.5" as="geometry" />
        </mxCell>
        <mxCell id="yC3nxN7uQtdNN0qrmy86-1687" value="&lt;span&gt;TCP/IP:32760&lt;/span&gt;" style="text;html=1;resizable=0;points=[];align=center;verticalAlign=middle;labelBackgroundColor=#ffffff;" vertex="1" connectable="0" parent="1">
          <mxGeometry x="930" y="759.5" as="geometry">
            <mxPoint x="-31" y="-92.5" as="offset" />
          </mxGeometry>
        </mxCell>
        <mxCell id="yC3nxN7uQtdNN0qrmy86-1688" value="&lt;span&gt;&amp;lt;&amp;lt;TCP/IP:[32760]&amp;gt;&amp;gt;&lt;/span&gt;" style="text;html=1;resizable=0;points=[];align=center;verticalAlign=middle;labelBackgroundColor=#ffffff;" vertex="1" connectable="0" parent="1">
          <mxGeometry x="930.0000000000005" y="759.6428571428569" as="geometry">
            <mxPoint x="-31" y="-92.5" as="offset" />
          </mxGeometry>
        </mxCell>
        <mxCell id="yC3nxN7uQtdNN0qrmy86-1690" value="&amp;lt;&amp;lt;TCP/IP: [2181,9092]&amp;gt;&amp;gt;" style="text;html=1;strokeColor=none;fillColor=none;align=center;verticalAlign=middle;whiteSpace=wrap;rounded=0;" vertex="1" parent="1">
          <mxGeometry x="250" y="638.6800000000001" width="140" height="20" as="geometry" />
        </mxCell>
        <mxCell id="yC3nxN7uQtdNN0qrmy86-1691" value="&amp;lt;&amp;lt;TCP/IP: [2181,9092]&amp;gt;&amp;gt;" style="text;html=1;strokeColor=none;fillColor=none;align=center;verticalAlign=middle;whiteSpace=wrap;rounded=0;" vertex="1" parent="1">
          <mxGeometry x="2479.5" y="129" width="140" height="20" as="geometry" />
        </mxCell>
      </root>
    </mxGraphModel>
  </diagram>
</mxfile>
